
    <svg width="56" height="56" viewBox="0 0 56 56" fill="none" xmlns="http://www.w3.org/2000/svg">
        <g id="calendar-star--calendar-date-day-favorite-like-month-star">
            <path id="Vector"
                d="M6 8C4.93913 8 3.92172 8.42143 3.17157 9.17157C2.42143 9.92172 2 10.9391 2 12V50C2 51.0609 2.42143 52.0783 3.17157 52.8284C3.92172 53.5786 4.93913 54 6 54H50C51.0609 54 52.0783 53.5786 52.8284 52.8284C53.5786 52.0783 54 51.0609 54 50V12C54 10.9391 53.5786 9.92172 52.8284 9.17157C52.0783 8.42143 51.0609 8 50 8H6Z"
                fill="#0E0E0E" fill-opacity="0.08" />
            <path id="Vector_2" d="M14 2V14" stroke="#0E0E0E" stroke-width="2" stroke-linecap="round"
                stroke-linejoin="round" />
            <path id="Vector_3" d="M42 2V14" stroke="#0E0E0E" stroke-width="2" stroke-linecap="round"
                stroke-linejoin="round" />
            <path id="Vector_4" d="M14 8H34" stroke="#0E0E0E" stroke-width="2" stroke-linecap="round"
                stroke-linejoin="round" />
            <path id="Vector_5"
                d="M6 8C4.93913 8 3.92172 8.42143 3.17157 9.17157C2.42143 9.92172 2 10.9391 2 12V50C2 51.0609 2.42143 52.0783 3.17157 52.8284C3.92172 53.5786 4.93913 54 6 54H50C51.0609 54 52.0783 53.5786 52.8284 52.8284C53.5786 52.0783 54 51.0609 54 50V12C54 10.9391 53.5786 9.92172 52.8284 9.17157C52.0783 8.42143 51.0609 8 50 8H42"
                stroke="#0E0E0E" stroke-width="2" stroke-linecap="round" stroke-linejoin="round" />
            <path id="Vector_6"
                d="M28.9949 18.6096L32.3413 25.3415C32.4162 25.5117 32.5348 25.6591 32.6852 25.7685C32.8356 25.8778 33.0124 25.9453 33.1974 25.9641L40.6297 27.0925C40.8422 27.1202 41.0424 27.2077 41.2069 27.345C41.3714 27.4823 41.4935 27.6635 41.5588 27.8676C41.6241 28.0717 41.63 28.2902 41.5757 28.4974C41.5214 28.7047 41.4092 28.8923 41.2523 29.0381L35.7656 34.2524C35.6838 34.4085 35.6411 34.582 35.6411 34.7583C35.6411 34.9345 35.6838 35.108 35.7656 35.2641L36.8163 42.6575C36.8611 42.8712 36.8429 43.0933 36.7641 43.2969C36.6852 43.5005 36.5489 43.6768 36.3718 43.8045C36.1946 43.9322 35.9843 44.0058 35.7662 44.0163C35.5481 44.0268 35.3316 43.9738 35.143 43.8637L28.5279 40.3616C28.3567 40.2843 28.171 40.2443 27.9832 40.2443C27.7953 40.2443 27.6096 40.2843 27.4384 40.3616L20.8233 43.8637C20.6347 43.9738 20.4182 44.0268 20.2001 44.0163C19.982 44.0058 19.7717 43.9322 19.5946 43.8045C19.4174 43.6768 19.2812 43.5005 19.2023 43.2969C19.1234 43.0933 19.1052 42.8712 19.1501 42.6575L20.3953 35.2641C20.4488 35.0925 20.4591 34.9103 20.4251 34.7338C20.3912 34.5573 20.3141 34.3919 20.2007 34.2524L14.7141 28.9992C14.5685 28.8518 14.4664 28.6672 14.4188 28.4655C14.3713 28.2639 14.3801 28.0531 14.4444 27.8562C14.5087 27.6593 14.626 27.4838 14.7834 27.3491C14.9407 27.2144 15.1322 27.1257 15.3367 27.0925L22.7689 26.003C22.9539 25.9843 23.1307 25.9168 23.2811 25.8074C23.4315 25.698 23.5502 25.5506 23.625 25.3804L26.9714 18.6485C27.061 18.458 27.2021 18.2963 27.3787 18.1817C27.5554 18.0671 27.7606 18.0043 27.9711 18.0002C28.1816 17.9962 28.389 18.0511 28.57 18.1588C28.7509 18.2665 28.8981 18.4227 28.9949 18.6096Z"
                fill="white" />
            <path id="Vector_7"
                d="M28.9949 18.6096L32.3413 25.3415C32.4162 25.5117 32.5348 25.6591 32.6852 25.7685C32.8356 25.8778 33.0124 25.9453 33.1974 25.9641L40.6297 27.0925C40.8422 27.1202 41.0424 27.2077 41.2069 27.345C41.3714 27.4823 41.4935 27.6635 41.5588 27.8676C41.6241 28.0717 41.63 28.2902 41.5757 28.4974C41.5214 28.7047 41.4092 28.8923 41.2523 29.0381L35.7656 34.2524C35.6838 34.4085 35.6411 34.582 35.6411 34.7583C35.6411 34.9345 35.6838 35.108 35.7656 35.2641L36.8163 42.6575C36.8611 42.8712 36.8429 43.0933 36.7641 43.2969C36.6852 43.5005 36.5489 43.6768 36.3718 43.8045C36.1946 43.9322 35.9843 44.0058 35.7662 44.0163C35.5481 44.0268 35.3316 43.9738 35.143 43.8637L28.5279 40.3616C28.3567 40.2843 28.171 40.2443 27.9832 40.2443C27.7953 40.2443 27.6096 40.2843 27.4384 40.3616L20.8233 43.8637C20.6347 43.9738 20.4182 44.0268 20.2001 44.0163C19.982 44.0058 19.7717 43.9322 19.5946 43.8045C19.4174 43.6768 19.2812 43.5005 19.2023 43.2969C19.1234 43.0933 19.1052 42.8712 19.1501 42.6575L20.3953 35.2641C20.4488 35.0925 20.4591 34.9103 20.4251 34.7338C20.3912 34.5573 20.3141 34.3919 20.2007 34.2524L14.7141 28.9992C14.5685 28.8518 14.4664 28.6672 14.4188 28.4655C14.3713 28.2639 14.3801 28.0531 14.4444 27.8562C14.5087 27.6593 14.626 27.4838 14.7834 27.3491C14.9407 27.2144 15.1322 27.1257 15.3367 27.0925L22.7689 26.003C22.9539 25.9843 23.1307 25.9168 23.2811 25.8074C23.4315 25.698 23.5502 25.5506 23.625 25.3804L26.9714 18.6485C27.061 18.458 27.2021 18.2963 27.3787 18.1817C27.5554 18.0671 27.7606 18.0043 27.9711 18.0002C28.1816 17.9962 28.389 18.0511 28.57 18.1588C28.7509 18.2665 28.8981 18.4227 28.9949 18.6096Z"
                stroke="#0E0E0E" stroke-width="2" stroke-linecap="round" stroke-linejoin="round" />
        </g>
    </svg>
