
    <svg width="56" height="56" viewBox="0 0 56 56" fill="none" xmlns="http://www.w3.org/2000/svg">
        <g id="insurance-hand--health-medical-insurance-hand-cross">
            <path id="Union"
                d="M2.33203 43.1245L12.107 51.2703C13.5447 52.4684 15.3569 53.1245 17.2284 53.1245L42.9987 53.1245C44.8396 53.1245 46.332 51.6321 46.332 49.7912C46.332 46.1093 43.3473 43.1245 39.6654 43.1245H21.7492C22.3272 42.9202 22.8697 42.5869 23.332 42.1245C24.9889 40.4677 24.9889 37.7814 23.332 36.1245L18.6752 31.4677C17.1749 29.9674 15.1401 29.1245 13.0183 29.1245H2.33203V43.1245Z"
                fill="#0E0E0E" fill-opacity="0.08" />
            <g id="Group 975">
                <path id="Union_2"
                    d="M32.75 4.25C31.6454 4.25 30.75 5.14543 30.75 6.25V11.8751L25.125 11.8751C24.0204 11.8751 23.125 12.7705 23.125 13.8751V20.3751C23.125 21.4797 24.0204 22.3751 25.125 22.3751H30.75V28C30.75 29.1046 31.6454 30 32.75 30H39.25C40.3546 30 41.25 29.1046 41.25 28V22.3751H46.875C47.9796 22.3751 48.875 21.4797 48.875 20.3751V13.8751C48.875 12.7705 47.9796 11.8751 46.875 11.8751L41.25 11.8751V6.25C41.25 5.14543 40.3546 4.25 39.25 4.25H32.75Z"
                    fill="white" />
                <path id="Union_3"
                    d="M32.75 4.25C31.6454 4.25 30.75 5.14543 30.75 6.25V11.8751L25.125 11.8751C24.0204 11.8751 23.125 12.7705 23.125 13.8751V20.3751C23.125 21.4797 24.0204 22.3751 25.125 22.3751H30.75V28C30.75 29.1046 31.6454 30 32.75 30H39.25C40.3546 30 41.25 29.1046 41.25 28V22.3751H46.875C47.9796 22.3751 48.875 21.4797 48.875 20.3751V13.8751C48.875 12.7705 47.9796 11.8751 46.875 11.8751L41.25 11.8751V6.25C41.25 5.14543 40.3546 4.25 39.25 4.25H32.75Z"
                    stroke="#0E0E0E" stroke-width="2" stroke-linecap="round" stroke-linejoin="round" />
            </g>
            <path id="Vector 294"
                d="M2.33203 43.1245L12.107 51.2703C13.5447 52.4684 15.3569 53.1245 17.2284 53.1245L42.9987 53.1245C44.8396 53.1245 46.332 51.6321 46.332 49.7912C46.332 46.1093 43.3473 43.1245 39.6654 43.1245H21.7492"
                stroke="#0E0E0E" stroke-width="2" stroke-linecap="round" stroke-linejoin="round" />
            <path id="Vector 295"
                d="M14.332 39.1245L17.332 42.1245C18.9889 43.7814 21.6752 43.7814 23.332 42.1245C24.9889 40.4677 24.9889 37.7814 23.332 36.1245L18.6752 31.4677C17.1749 29.9674 15.1401 29.1245 13.0183 29.1245H2.33203"
                stroke="#0E0E0E" stroke-width="2" stroke-linecap="round" stroke-linejoin="round" />
        </g>
    </svg>
