
    <svg width="56" height="56" viewBox="0 0 56 56" fill="none" xmlns="http://www.w3.org/2000/svg">
        <g id="beach--island-waves-outdoor-recreation-tree-beach-palm-wave-water-travel-places">
            <path id="Subtract"
                d="M1.12973 54H4C6.12173 54 8.15656 53.1571 9.65686 51.6569C11.1571 50.1566 12 48.1217 12 46C12 48.1217 12.8429 50.1566 14.3431 51.6569C15.8434 53.1571 17.8783 54 20 54C22.1217 54 24.1566 53.1571 25.6569 51.6569C27.1572 50.1566 28 48.1217 28 46C28 48.1217 28.8429 50.1566 30.3431 51.6569C31.8434 53.1571 33.8783 54 36 54C38.1217 54 40.1566 53.1571 41.6569 51.6569C43.1571 50.1566 44 48.1217 44 46C44 47.3132 44.3229 48.5932 44.9247 49.7337C43.7903 38.6482 34.4251 30 23.04 30C10.8898 30 1.04004 39.8497 1.04004 52C1.04004 52.6742 1.07036 53.3413 1.12973 54Z"
                fill="#0E0E0E" fill-opacity="0.08" />
            <path id="Vector"
                d="M54 53.9199H52C49.8783 53.9199 47.8434 53.0771 46.3431 51.5768C44.8429 50.0765 44 48.0417 44 45.9199C44 48.0417 43.1571 50.0765 41.6568 51.5768C40.1566 53.0771 38.1217 53.9199 36 53.9199C33.8783 53.9199 31.8434 53.0771 30.3431 51.5768C28.8429 50.0765 28 48.0417 28 45.9199C28 48.0417 27.1571 50.0765 25.6569 51.5768C24.1566 53.0771 22.1217 53.9199 20 53.9199C17.8783 53.9199 15.8434 53.0771 14.3431 51.5768C12.8429 50.0765 12 48.0417 12 45.9199C12 48.0417 11.1571 50.0765 9.65685 51.5768C8.15656 53.0771 6.12173 53.9199 4 53.9199H2"
                stroke="#0E0E0E" stroke-width="2" stroke-linecap="round" stroke-linejoin="round" />
            <path id="Vector_2"
                d="M40.0001 37.92C37.94 35.4154 35.3507 33.3981 32.4183 32.0132C29.4859 30.6282 26.2831 29.9099 23.0401 29.9099C19.7971 29.9099 16.5943 30.6282 13.6619 32.0132C10.7295 33.3981 8.14018 35.4154 6.08008 37.92"
                stroke="#0E0E0E" stroke-width="2" stroke-linecap="round" stroke-linejoin="round" />
            <path id="Vector_3" d="M26 30.1199C26.24 21.0799 29 12.8399 35 9.87988" stroke="#0E0E0E" stroke-width="2"
                stroke-linecap="round" stroke-linejoin="round" />
            <path id="Vector_4"
                d="M23.04 2.27991C25.633 1.76935 28.323 2.27296 30.5556 3.68695C32.7882 5.10094 34.3933 7.31755 35.04 9.87991"
                stroke="#0E0E0E" stroke-width="2" stroke-linecap="round" stroke-linejoin="round" />
            <path id="Vector_5"
                d="M49.64 11.3601C47.799 9.37218 45.2955 8.12483 42.5998 7.85231C39.9041 7.57979 37.2016 8.30086 35 9.88008"
                stroke="#0E0E0E" stroke-width="2" stroke-linecap="round" stroke-linejoin="round" />
            <path id="Vector_6"
                d="M20.3203 14.1601C21.8877 11.8509 24.211 10.1602 26.8903 9.37907C29.5697 8.5979 32.4375 8.77506 35.0003 9.88007C37.571 10.5088 39.7966 12.112 41.2073 14.3511C42.6179 16.5902 43.1031 19.2899 42.5603 21.8801"
                stroke="#0E0E0E" stroke-width="2" stroke-linecap="round" stroke-linejoin="round" />
        </g>
    </svg>
