    <svg width="56" height="56" viewBox="0 0 56 56" fill="none" xmlns="http://www.w3.org/2000/svg">
        <g id="laptop-charging--device-laptop-electronics-computer-notebook-charging">
            <path id="Vector"
                d="M9.89961 37.6001L2.69961 48.0001C1.89961 49.2001 1.89961 50.8001 2.69961 52.0001C3.49961 53.2001 4.69961 54.0001 5.89961 54.0001H49.0996C51.4996 54.0001 53.0996 52.4001 53.0996 50.0001C53.0996 49.2001 53.0996 48.8001 52.6996 48.0001L45.4996 37.6001H9.89961Z"
                fill="#0E0E0E" fill-opacity="0.08" />
            <path id="Vector_2" d="M46 2L38 14H50L42 26" stroke="#0E0E0E" stroke-width="2" stroke-linecap="round"
                stroke-linejoin="round" />
            <path id="Vector_3"
                d="M9.89961 37.6001L2.69961 48.0001C1.89961 49.2001 1.89961 50.8001 2.69961 52.0001C3.49961 53.2001 4.69961 54.0001 5.89961 54.0001H49.0996C51.4996 54.0001 53.0996 52.4001 53.0996 50.0001C53.0996 49.2001 53.0996 48.8001 52.6996 48.0001L45.4996 37.6001H9.89961Z"
                stroke="#0E0E0E" stroke-width="2" stroke-linecap="round" stroke-linejoin="round" />
            <path id="Vector_4" d="M45.5 37.6001V34" stroke="#0E0E0E" stroke-width="2" stroke-linecap="round"
                stroke-linejoin="round" />
            <path id="Vector_5" d="M27.9004 13.6001H13.9004C11.5004 13.6001 9.90039 15.2001 9.90039 17.6001V37.6001"
                stroke="#0E0E0E" stroke-width="2" stroke-linecap="round" stroke-linejoin="round" />
            <path id="Vector_6"
                d="M9.89961 37.6001L2.69961 48.0001C1.89961 49.2001 1.89961 50.8001 2.69961 52.0001C3.49961 53.2001 4.69961 54.0001 5.89961 54.0001H49.0996C51.4996 54.0001 53.0996 52.4001 53.0996 50.0001C53.0996 49.2001 53.0996 48.8001 52.6996 48.0001L45.4996 37.6001H9.89961Z"
                stroke="#0E0E0E" stroke-width="2" stroke-linecap="round" stroke-linejoin="round" />
            <path id="Vector_7" d="M45.5 37.6001V34" stroke="#0E0E0E" stroke-width="2" stroke-linecap="round"
                stroke-linejoin="round" />
        </g>
    </svg>