
    <svg width="56" height="56" viewBox="0 0 56 56" fill="none" xmlns="http://www.w3.org/2000/svg">
        <g id="party-popper--hobby-entertainment-party-popper-confetti-event">
            <path id="Vector"
                d="M47.3997 52.8001L20.6797 42.8401C19.8888 42.5607 19.1808 42.0869 18.621 41.4622C18.0613 40.8375 17.6676 40.082 17.4764 39.2653C17.2852 38.4486 17.3025 37.5969 17.5267 36.7886C17.751 35.9803 18.175 35.2415 18.7597 34.6401L35.5197 17.8801C36.1388 17.2998 36.8944 16.8852 37.7165 16.6748C38.5385 16.4643 39.4004 16.4649 40.2222 16.6763C41.0439 16.8877 41.799 17.3032 42.4174 17.8842C43.0358 18.4653 43.4975 19.193 43.7597 20.0001L53.6797 46.7201C53.9553 47.5857 53.9837 48.5111 53.7619 49.392C53.5401 50.2729 53.0767 51.0745 52.424 51.7064C51.7714 52.3382 50.9553 52.7754 50.0676 52.9686C49.18 53.1619 48.256 53.1035 47.3997 52.8001Z"
                fill="#0E0E0E" fill-opacity="0.08" />
            <path id="Vector_2"
                d="M47.3997 52.8001L20.6797 42.8401C19.8888 42.5607 19.1808 42.0869 18.621 41.4622C18.0613 40.8375 17.6676 40.082 17.4764 39.2653C17.2852 38.4486 17.3025 37.5969 17.5267 36.7886C17.751 35.9803 18.175 35.2415 18.7597 34.6401L35.5197 17.8801C36.1388 17.2998 36.8944 16.8852 37.7165 16.6748C38.5385 16.4643 39.4004 16.4649 40.2222 16.6763C41.0439 16.8877 41.799 17.3032 42.4174 17.8842C43.0358 18.4653 43.4975 19.193 43.7597 20.0001L53.6797 46.7201C53.9553 47.5857 53.9837 48.5111 53.7619 49.392C53.5401 50.2729 53.0767 51.0745 52.424 51.7064C51.7714 52.3382 50.9553 52.7754 50.0676 52.9686C49.18 53.1619 48.256 53.1035 47.3997 52.8001V52.8001Z"
                stroke="#0E0E0E" stroke-width="2" stroke-linecap="round" stroke-linejoin="round" />
            <path id="Vector_3" d="M8.2002 28.5199C9.97645 27.5287 12.0566 27.2295 14.0402 27.6799" stroke="#0E0E0E"
                stroke-width="2" stroke-linecap="round" stroke-linejoin="round" />
            <path id="Vector_4" d="M17.32 17.1201C16.1873 15.4125 15.7178 13.3497 16 11.3201" stroke="#0E0E0E"
                stroke-width="2" stroke-linecap="round" stroke-linejoin="round" />
            <path id="Vector_5" d="M26.52 2.87988C25.118 7.17458 25.3025 11.8296 27.04 15.9999" stroke="#0E0E0E"
                stroke-width="2" stroke-linecap="round" stroke-linejoin="round" />
            <path id="Vector_6"
                d="M4 15.1201C5.10457 15.1201 6 14.2247 6 13.1201C6 12.0155 5.10457 11.1201 4 11.1201C2.89543 11.1201 2 12.0155 2 13.1201C2 14.2247 2.89543 15.1201 4 15.1201Z"
                stroke="#0E0E0E" stroke-width="2" stroke-linecap="round" stroke-linejoin="round" />
        </g>
    </svg>

