
    <svg width="56" height="56" viewBox="0 0 56 56" fill="none" xmlns="http://www.w3.org/2000/svg">
        <g id="sign-cross-square--health-sign-medical-symbol-hospital-cross-square">
            <path id="Rectangle 1681"
                d="M2.75 3.375C2.75 2.82271 3.19772 2.375 3.75 2.375H52.125C52.6773 2.375 53.125 2.82272 53.125 3.375V51.75C53.125 52.3023 52.6773 52.75 52.125 52.75H3.75C3.19771 52.75 2.75 52.3023 2.75 51.75V3.375Z"
                fill="#0E0E0E" fill-opacity="0.08" />
            <path id="Rectangle 1682"
                d="M2.75 3.375C2.75 2.82271 3.19772 2.375 3.75 2.375H52.125C52.6773 2.375 53.125 2.82272 53.125 3.375V51.75C53.125 52.3023 52.6773 52.75 52.125 52.75H3.75C3.19771 52.75 2.75 52.3023 2.75 51.75V3.375Z"
                stroke="#0E0E0E" stroke-width="2" stroke-linecap="round" stroke-linejoin="round" />
            <g id="Group 975">
                <path id="Union"
                    d="M24.75 14.25C23.6454 14.25 22.75 15.1454 22.75 16.25V21.8751L17.125 21.8751C16.0204 21.8751 15.125 22.7705 15.125 23.8751V30.3751C15.125 31.4797 16.0204 32.3751 17.125 32.3751H22.75V38C22.75 39.1046 23.6454 40 24.75 40H31.25C32.3546 40 33.25 39.1046 33.25 38V32.3751H38.875C39.9796 32.3751 40.875 31.4797 40.875 30.3751V23.8751C40.875 22.7705 39.9796 21.8751 38.875 21.8751L33.25 21.8751V16.25C33.25 15.1454 32.3546 14.25 31.25 14.25H24.75Z"
                    fill="white" />
                <path id="Union_2"
                    d="M24.75 14.25C23.6454 14.25 22.75 15.1454 22.75 16.25V21.8751L17.125 21.8751C16.0204 21.8751 15.125 22.7705 15.125 23.8751V30.3751C15.125 31.4797 16.0204 32.3751 17.125 32.3751H22.75V38C22.75 39.1046 23.6454 40 24.75 40H31.25C32.3546 40 33.25 39.1046 33.25 38V32.3751H38.875C39.9796 32.3751 40.875 31.4797 40.875 30.3751V23.8751C40.875 22.7705 39.9796 21.8751 38.875 21.8751L33.25 21.8751V16.25C33.25 15.1454 32.3546 14.25 31.25 14.25H24.75Z"
                    stroke="#0E0E0E" stroke-width="2" stroke-linecap="round" stroke-linejoin="round" />
            </g>
        </g>
    </svg>
