<svg width="32" height="32" viewBox="0 0 32 32" fill="none" xmlns="http://www.w3.org/2000/svg">
<g id="startup--shop-rocket-launch-startup">
<path id="Vector" d="M13.0511 9.85154C8.66258 6.85725 4.57115 9.14297 1.14258 12.663L8.73115 17.2344" stroke="#00AC99" stroke-width="2" stroke-linecap="round" stroke-linejoin="round"/>
<path id="Vector_2" d="M22.1485 18.9485C25.1428 23.3371 22.8571 27.4285 19.3371 30.8571L14.7656 23.2685" stroke="#00AC99" stroke-width="2" stroke-linecap="round" stroke-linejoin="round"/>
<path id="Vector_3" d="M8.73145 17.2115L14.7886 23.2686C19.6343 20.3658 25.1429 17.5543 27.6572 14.9486C33.0972 9.50861 29.9429 2.05718 29.9429 2.05718C29.9429 2.05718 22.4914 -1.0971 17.0514 4.3429C14.4457 6.85719 11.6114 12.3886 8.73145 17.2115Z" stroke="#00AC99" stroke-width="2" stroke-linecap="round" stroke-linejoin="round"/>
<path id="Vector_4" d="M12.0684 11.4744L20.5255 19.9315" stroke="#00AC99" stroke-width="2" stroke-linecap="round" stroke-linejoin="round"/>
<path id="Vector_5" d="M24.0003 9.14289C24.6315 9.14289 25.1431 8.63122 25.1431 8.00003C25.1431 7.36885 24.6315 6.85718 24.0003 6.85718C23.3691 6.85718 22.8574 7.36885 22.8574 8.00003C22.8574 8.63122 23.3691 9.14289 24.0003 9.14289Z" stroke="#00AC99" stroke-width="2" stroke-linecap="round" stroke-linejoin="round"/>
<path id="Vector_6" d="M8.41115 28.4343C7.08544 29.7143 1.14258 30.8571 1.14258 30.8571C1.14258 30.8571 2.28544 24.9143 3.56543 23.5886C3.87932 23.2517 4.25783 22.9815 4.6784 22.7941C5.09897 22.6067 5.55298 22.506 6.01333 22.4978C6.47369 22.4897 6.93096 22.5744 7.35788 22.7468C7.7848 22.9193 8.17261 23.1759 8.49818 23.5015C8.82375 23.8271 9.08041 24.2149 9.25285 24.6418C9.42529 25.0687 9.50998 25.526 9.50185 25.9864C9.49373 26.4467 9.39297 26.9007 9.20558 27.3213C9.01819 27.7419 8.748 28.1204 8.41115 28.4343Z" stroke="#00AC99" stroke-width="2" stroke-linecap="round" stroke-linejoin="round"/>
</g>
</svg>
