<svg width="32" height="32" viewBox="0 0 32 32" fill="none" xmlns="http://www.w3.org/2000/svg">
<g id="target--shop-bullseye-arrow-target">
<path id="Vector" d="M30.811 17.1428C30.5854 19.9783 29.5505 22.6893 27.8295 24.954C26.1084 27.2186 23.7734 28.9416 21.1019 29.9182C18.4304 30.8948 15.5347 31.084 12.7589 30.4634C9.98298 29.8427 7.44362 28.4383 5.44246 26.4169C3.44129 24.3955 2.06244 21.8422 1.46971 19.0602C0.876987 16.2782 1.09531 13.3846 2.09873 10.7231C3.10216 8.06153 4.84851 5.74397 7.13031 4.04573C9.41212 2.34749 12.1335 1.33995 14.971 1.14282" stroke="#00AC99" stroke-width="2" stroke-linecap="round" stroke-linejoin="round"/>
<path id="Vector_2" d="M26.2856 11.4285L21.7141 10.2857L20.5713 5.71425L25.1427 1.14282L26.2856 5.71425L30.857 6.85711L26.2856 11.4285Z" stroke="#00AC99" stroke-width="2" stroke-linecap="round" stroke-linejoin="round"/>
<path id="Vector_3" d="M22.3768 18.4914C21.964 19.5538 21.2929 20.4965 20.4242 21.2344C19.5556 21.9722 18.5167 22.4819 17.4015 22.7173C16.2863 22.9528 15.13 22.9065 14.0372 22.5827C12.9444 22.259 11.9496 21.6679 11.1426 20.863C10.3356 20.0582 9.74201 19.0648 9.41544 17.9728C9.08887 16.8809 9.03963 15.7247 9.27219 14.6089C9.50474 13.4932 10.0118 12.4529 10.7474 11.5824C11.483 10.7118 12.424 10.0383 13.4853 9.6228" stroke="#00AC99" stroke-width="2" stroke-linecap="round" stroke-linejoin="round"/>
<path id="Vector_4" d="M16 15.9999L21.7143 10.2856" stroke="#00AC99" stroke-width="2" stroke-linecap="round" stroke-linejoin="round"/>
</g>
</svg>
