<svg width="214" height="261" viewBox="0 0 214 261" fill="none" xmlns="http://www.w3.org/2000/svg">
<g filter="url(#filter0_d_198_38800)">
<path d="M32 19.5385C32 14.0992 32 11.3795 33.6898 9.68977C35.3795 8 38.0992 8 43.5385 8H170.462C175.901 8 178.62 8 180.31 9.68977C182 11.3795 182 14.0992 182 19.5385V193.337C182 198.776 182 201.495 180.31 203.185C178.62 204.875 175.901 204.875 170.462 204.875H43.5385C38.0992 204.875 35.3795 204.875 33.6898 203.185C32 201.495 32 198.776 32 193.337V19.5385Z" fill="white"/>
<path fill-rule="evenodd" clip-rule="evenodd" d="M170.462 8.36058H43.5385C40.8086 8.36058 38.7975 8.36134 37.2561 8.56858C35.725 8.77443 34.7115 9.17801 33.9447 9.94473C33.178 10.7115 32.7744 11.725 32.5686 13.2561C32.3613 14.7975 32.3606 16.8086 32.3606 19.5385V193.337C32.3606 196.066 32.3613 198.077 32.5686 199.619C32.7744 201.15 33.178 202.164 33.9447 202.93C34.7115 203.697 35.725 204.101 37.2561 204.306C38.7975 204.514 40.8086 204.514 43.5385 204.514H170.462C173.191 204.514 175.202 204.514 176.744 204.306C178.275 204.101 179.289 203.697 180.055 202.93C180.822 202.164 181.226 201.15 181.431 199.619C181.639 198.077 181.639 196.066 181.639 193.337V19.5385C181.639 16.8086 181.639 14.7975 181.431 13.2561C181.226 11.725 180.822 10.7115 180.055 9.94473C179.289 9.17801 178.275 8.77443 176.744 8.56858C175.202 8.36134 173.191 8.36058 170.462 8.36058ZM33.6898 9.68977C32 11.3795 32 14.0992 32 19.5385V193.337C32 198.776 32 201.495 33.6898 203.185C35.3795 204.875 38.0992 204.875 43.5385 204.875H170.462C175.901 204.875 178.62 204.875 180.31 203.185C182 201.495 182 198.776 182 193.337V19.5385C182 14.0992 182 11.3795 180.31 9.68977C178.62 8 175.901 8 170.462 8H43.5385C38.0992 8 35.3795 8 33.6898 9.68977Z" fill="#364140" fill-opacity="0.16"/>
<path fill-rule="evenodd" clip-rule="evenodd" d="M167.579 172.064H46.4255C45.0555 172.064 44.0642 172.064 43.3083 172.166C42.5628 172.266 42.1004 172.459 41.7561 172.803C41.4118 173.147 41.2195 173.61 41.1192 174.355C41.0176 175.111 41.0168 176.102 41.0168 177.472V190.453C41.0168 191.823 41.0176 192.814 41.1192 193.57C41.2195 194.316 41.4118 194.778 41.7561 195.123C42.1004 195.467 42.5628 195.659 43.3083 195.759C44.0642 195.861 45.0555 195.862 46.4255 195.862H167.579C168.949 195.862 169.941 195.861 170.696 195.759C171.442 195.659 171.904 195.467 172.249 195.123C172.593 194.778 172.785 194.316 172.886 193.57C172.987 192.814 172.988 191.823 172.988 190.453V177.472C172.988 176.102 172.987 175.111 172.886 174.355C172.785 173.61 172.593 173.147 172.249 172.803C171.904 172.459 171.442 172.266 170.696 172.166C169.941 172.064 168.949 172.064 167.579 172.064ZM41.5011 172.548C40.6562 173.393 40.6562 174.753 40.6562 177.472V190.453C40.6562 193.173 40.6562 194.533 41.5011 195.377C42.346 196.222 43.7058 196.222 46.4255 196.222H167.579C170.299 196.222 171.659 196.222 172.504 195.377C173.349 194.533 173.349 193.173 173.349 190.453V177.472C173.349 174.753 173.349 173.393 172.504 172.548C171.659 171.703 170.299 171.703 167.579 171.703H46.4255C43.7058 171.703 42.346 171.703 41.5011 172.548Z" fill="#364140" fill-opacity="0.16"/>
<path d="M157.08 189.066C156.795 189.066 156.516 189.026 156.243 188.945C155.974 188.86 155.747 188.745 155.562 188.599L155.88 188.016C156.026 188.135 156.203 188.232 156.411 188.305C156.622 188.378 156.841 188.414 157.068 188.414C157.334 188.414 157.541 188.359 157.691 188.247C157.845 188.135 157.922 187.985 157.922 187.797C157.922 187.67 157.889 187.559 157.824 187.462C157.763 187.366 157.651 187.293 157.489 187.243C157.332 187.193 157.114 187.168 156.838 187.168H155.863L156.07 184.97H158.441V185.599H156.347L156.739 185.241L156.584 186.885L156.191 186.534H157.005C157.405 186.534 157.726 186.587 157.968 186.695C158.214 186.799 158.393 186.945 158.505 187.134C158.62 187.318 158.678 187.53 158.678 187.768C158.678 188.003 158.62 188.218 158.505 188.414C158.389 188.61 158.213 188.768 157.974 188.887C157.739 189.007 157.441 189.066 157.08 189.066Z" fill="#364140"/>
<path d="M161.27 189.009L164.028 184.97H164.593L161.836 189.009H161.27ZM161.605 187.145C161.416 187.145 161.249 187.099 161.103 187.007C160.957 186.914 160.843 186.785 160.763 186.62C160.682 186.455 160.641 186.26 160.641 186.037C160.641 185.814 160.682 185.62 160.763 185.455C160.843 185.289 160.957 185.16 161.103 185.068C161.249 184.976 161.416 184.93 161.605 184.93C161.801 184.93 161.97 184.976 162.113 185.068C162.259 185.16 162.372 185.289 162.453 185.455C162.534 185.62 162.574 185.814 162.574 186.037C162.574 186.26 162.534 186.455 162.453 186.62C162.372 186.785 162.259 186.914 162.113 187.007C161.97 187.099 161.801 187.145 161.605 187.145ZM161.611 186.741C161.765 186.741 161.884 186.682 161.968 186.562C162.057 186.439 162.101 186.264 162.101 186.037C162.101 185.81 162.057 185.637 161.968 185.518C161.884 185.395 161.765 185.334 161.611 185.334C161.457 185.334 161.334 185.395 161.241 185.518C161.153 185.641 161.109 185.814 161.109 186.037C161.109 186.26 161.153 186.434 161.241 186.557C161.334 186.68 161.457 186.741 161.611 186.741ZM164.253 189.049C164.065 189.049 163.897 189.003 163.751 188.91C163.605 188.818 163.491 188.689 163.411 188.524C163.33 188.359 163.29 188.164 163.29 187.941C163.29 187.718 163.33 187.524 163.411 187.359C163.491 187.193 163.605 187.064 163.751 186.972C163.897 186.88 164.065 186.834 164.253 186.834C164.449 186.834 164.618 186.88 164.761 186.972C164.907 187.064 165.02 187.193 165.101 187.359C165.182 187.524 165.222 187.718 165.222 187.941C165.222 188.164 165.182 188.359 165.101 188.524C165.02 188.689 164.907 188.818 164.761 188.91C164.618 189.003 164.449 189.049 164.253 189.049ZM164.253 188.645C164.407 188.645 164.528 188.584 164.616 188.46C164.705 188.337 164.749 188.164 164.749 187.941C164.749 187.718 164.705 187.545 164.616 187.422C164.528 187.299 164.407 187.237 164.253 187.237C164.103 187.237 163.982 187.299 163.89 187.422C163.801 187.541 163.757 187.714 163.757 187.941C163.757 188.168 163.801 188.343 163.89 188.466C163.982 188.585 164.103 188.645 164.253 188.645Z" fill="#364140"/>
<path d="M158.156 180.716V177.688H158.476V180.439H160.173V180.716H158.156Z" fill="#364140" fill-opacity="0.64"/>
<path d="M161.01 180.716V177.964H159.945V177.688H162.394V177.964H161.33V180.716H161.01Z" fill="#364140" fill-opacity="0.64"/>
<path d="M163.746 180.716L162.404 177.688H162.75L164.005 180.539H163.815L165.078 177.688H165.403L164.062 180.716H163.746Z" fill="#364140" fill-opacity="0.64"/>
<path d="M49.8538 189.008V185.258L50.1827 185.599H49V184.97H50.6038V189.008H49.8538Z" fill="#364140"/>
<path d="M51.353 189.008V188.506L52.9569 186.983C53.0915 186.856 53.1915 186.745 53.2569 186.649C53.3223 186.552 53.3646 186.464 53.3838 186.383C53.4069 186.299 53.4184 186.22 53.4184 186.147C53.4184 185.962 53.355 185.82 53.228 185.72C53.1011 185.616 52.9146 185.564 52.6684 185.564C52.4723 185.564 52.2934 185.599 52.1319 185.668C51.9742 185.737 51.8377 185.843 51.7223 185.985L51.1973 185.581C51.355 185.37 51.5665 185.206 51.8319 185.091C52.1011 184.972 52.4011 184.912 52.7319 184.912C53.0242 184.912 53.278 184.96 53.4934 185.056C53.7126 185.149 53.88 185.281 53.9953 185.454C54.1146 185.627 54.1742 185.833 54.1742 186.072C54.1742 186.202 54.1569 186.333 54.1223 186.464C54.0876 186.591 54.0223 186.726 53.9261 186.868C53.83 187.01 53.6896 187.17 53.505 187.347L52.1261 188.656L51.9703 188.374H54.33V189.008H51.353Z" fill="#364140"/>
<path d="M56.4474 189.066C56.1282 189.066 55.8398 188.985 55.5821 188.824C55.3282 188.662 55.1282 188.427 54.9821 188.12C54.8359 187.808 54.7628 187.431 54.7628 186.989C54.7628 186.547 54.8359 186.172 54.9821 185.864C55.1282 185.552 55.3282 185.316 55.5821 185.154C55.8398 184.993 56.1282 184.912 56.4474 184.912C56.7705 184.912 57.059 184.993 57.3128 185.154C57.5667 185.316 57.7667 185.552 57.9128 185.864C58.0628 186.172 58.1378 186.547 58.1378 186.989C58.1378 187.431 58.0628 187.808 57.9128 188.12C57.7667 188.427 57.5667 188.662 57.3128 188.824C57.059 188.985 56.7705 189.066 56.4474 189.066ZM56.4474 188.414C56.6359 188.414 56.7994 188.364 56.9378 188.264C57.0763 188.16 57.184 188.002 57.2609 187.791C57.3417 187.579 57.3821 187.312 57.3821 186.989C57.3821 186.662 57.3417 186.395 57.2609 186.187C57.184 185.976 57.0763 185.82 56.9378 185.72C56.7994 185.616 56.6359 185.564 56.4474 185.564C56.2667 185.564 56.1051 185.616 55.9628 185.72C55.8244 185.82 55.7148 185.976 55.634 186.187C55.5571 186.395 55.5186 186.662 55.5186 186.989C55.5186 187.312 55.5571 187.579 55.634 187.791C55.7148 188.002 55.8244 188.16 55.9628 188.264C56.1051 188.364 56.2667 188.414 56.4474 188.414Z" fill="#364140"/>
<path d="M98.6484 186.125V182.086H100.391C100.841 182.086 101.189 182.176 101.435 182.357C101.685 182.538 101.81 182.794 101.81 183.125C101.81 183.344 101.758 183.528 101.654 183.678C101.554 183.828 101.416 183.942 101.239 184.019C101.066 184.096 100.875 184.134 100.668 184.134L100.766 183.996C101.023 183.996 101.245 184.036 101.429 184.117C101.618 184.194 101.764 184.311 101.868 184.469C101.972 184.623 102.023 184.815 102.023 185.046C102.023 185.388 101.897 185.653 101.643 185.842C101.393 186.03 101.014 186.125 100.506 186.125H98.6484ZM99.0754 185.773H100.5C100.854 185.773 101.125 185.713 101.314 185.594C101.502 185.471 101.597 185.276 101.597 185.011C101.597 184.75 101.502 184.559 101.314 184.44C101.125 184.317 100.854 184.255 100.5 184.255H99.0292V183.903H100.362C100.685 183.903 100.935 183.842 101.112 183.719C101.293 183.596 101.383 183.413 101.383 183.171C101.383 182.925 101.293 182.742 101.112 182.623C100.935 182.5 100.685 182.438 100.362 182.438H99.0754V185.773Z" fill="#364140" fill-opacity="0.64"/>
<path d="M104.163 186.153C103.906 186.153 103.681 186.105 103.488 186.009C103.296 185.913 103.146 185.769 103.038 185.576C102.934 185.384 102.883 185.144 102.883 184.855V183.096H103.292V184.809C103.292 185.132 103.371 185.376 103.529 185.542C103.69 185.703 103.915 185.784 104.204 185.784C104.415 185.784 104.598 185.742 104.752 185.657C104.909 185.569 105.029 185.442 105.109 185.276C105.194 185.111 105.236 184.913 105.236 184.682V183.096H105.646V186.125H105.254V185.294L105.317 185.444C105.221 185.667 105.071 185.842 104.867 185.969C104.667 186.092 104.433 186.153 104.163 186.153Z" fill="#364140" fill-opacity="0.64"/>
<path d="M106.788 186.125V181.844H107.197V186.125H106.788Z" fill="#364140" fill-opacity="0.64"/>
<path d="M108.337 186.125V181.844H108.747V186.125H108.337Z" fill="#364140" fill-opacity="0.64"/>
<path d="M111.173 186.153C110.857 186.153 110.58 186.088 110.342 185.957C110.104 185.823 109.917 185.64 109.782 185.409C109.648 185.175 109.58 184.907 109.58 184.607C109.58 184.307 109.644 184.042 109.771 183.811C109.902 183.58 110.079 183.4 110.302 183.269C110.529 183.134 110.782 183.067 111.063 183.067C111.348 183.067 111.6 183.132 111.819 183.263C112.042 183.39 112.217 183.571 112.344 183.805C112.471 184.036 112.534 184.303 112.534 184.607C112.534 184.626 112.532 184.648 112.529 184.671C112.529 184.69 112.529 184.711 112.529 184.734H109.892V184.428H112.309L112.148 184.55C112.148 184.33 112.1 184.136 112.004 183.967C111.911 183.794 111.784 183.659 111.623 183.563C111.461 183.467 111.275 183.419 111.063 183.419C110.855 183.419 110.669 183.467 110.504 183.563C110.338 183.659 110.209 183.794 110.117 183.967C110.025 184.14 109.979 184.338 109.979 184.561V184.625C109.979 184.855 110.029 185.059 110.129 185.236C110.232 185.409 110.375 185.546 110.555 185.646C110.74 185.742 110.95 185.79 111.184 185.79C111.369 185.79 111.54 185.757 111.698 185.692C111.859 185.626 111.998 185.526 112.113 185.392L112.344 185.657C112.209 185.819 112.04 185.942 111.836 186.026C111.636 186.111 111.415 186.153 111.173 186.153Z" fill="#364140" fill-opacity="0.64"/>
<path d="M114.326 186.153C114.041 186.153 113.822 186.076 113.668 185.923C113.514 185.769 113.437 185.551 113.437 185.271V182.426H113.847V185.248C113.847 185.425 113.891 185.561 113.98 185.657C114.072 185.753 114.203 185.801 114.372 185.801C114.553 185.801 114.703 185.75 114.822 185.646L114.966 185.94C114.885 186.013 114.787 186.067 114.672 186.101C114.56 186.136 114.445 186.153 114.326 186.153ZM112.895 183.436V183.096H114.77V183.436H112.895Z" fill="#364140" fill-opacity="0.64"/>
<path d="M49.4453 180.716V177.688H50.6785C51.0016 177.688 51.2843 177.752 51.5266 177.882C51.7718 178.009 51.9621 178.187 52.0977 178.414C52.2333 178.642 52.3011 178.905 52.3011 179.202C52.3011 179.499 52.2333 179.762 52.0977 179.989C51.9621 180.217 51.7718 180.396 51.5266 180.526C51.2843 180.653 51.0016 180.716 50.6785 180.716H49.4453ZM49.7655 180.439H50.6612C50.9294 180.439 51.1617 180.388 51.3578 180.284C51.5569 180.177 51.7112 180.031 51.8208 179.847C51.9304 179.659 51.9852 179.444 51.9852 179.202C51.9852 178.957 51.9304 178.742 51.8208 178.557C51.7112 178.373 51.5569 178.228 51.3578 178.125C51.1617 178.018 50.9294 177.964 50.6612 177.964H49.7655V180.439Z" fill="#364140" fill-opacity="0.64"/>
<path d="M54.3787 180.716V180.214L54.3658 180.132V179.293C54.3658 179.1 54.311 178.951 54.2013 178.847C54.0946 178.743 53.9345 178.691 53.7211 178.691C53.5739 178.691 53.434 178.716 53.3013 178.765C53.1687 178.814 53.0562 178.879 52.9638 178.96L52.8254 178.73C52.9408 178.632 53.0792 178.557 53.2408 178.505C53.4023 178.45 53.5725 178.423 53.7513 178.423C54.0456 178.423 54.272 178.497 54.4307 178.644C54.5922 178.788 54.673 179.009 54.673 179.306V180.716H54.3787ZM53.5956 180.738C53.4254 180.738 53.2768 180.711 53.1499 180.656C53.0259 180.598 52.9307 180.52 52.8643 180.422C52.798 180.321 52.7648 180.206 52.7648 180.076C52.7648 179.958 52.7922 179.851 52.847 179.756C52.9047 179.658 52.997 179.58 53.1239 179.522C53.2537 179.462 53.4268 179.431 53.6432 179.431H54.4263V179.661H53.6518C53.4326 179.661 53.2797 179.7 53.1932 179.777C53.1095 179.855 53.0677 179.952 53.0677 180.067C53.0677 180.197 53.1182 180.301 53.2191 180.379C53.3201 180.457 53.4614 180.496 53.6432 180.496C53.8162 180.496 53.9648 180.457 54.0888 180.379C54.2158 180.298 54.3081 180.183 54.3658 180.033L54.435 180.245C54.3773 180.395 54.2763 180.514 54.1321 180.604C53.9908 180.693 53.8119 180.738 53.5956 180.738Z" fill="#364140" fill-opacity="0.64"/>
<path d="M55.4825 181.577C55.3757 181.577 55.2733 181.56 55.1752 181.525C55.08 181.491 54.9978 181.439 54.9286 181.37L55.0714 181.14C55.1291 181.195 55.1911 181.237 55.2575 181.266C55.3267 181.298 55.4031 181.313 55.4868 181.313C55.5877 181.313 55.6743 181.285 55.7464 181.227C55.8214 181.172 55.8921 181.074 55.9584 180.933L56.1055 180.6L56.1401 180.552L57.0748 178.445H57.3776L56.2397 180.989C56.1762 181.136 56.1055 181.253 56.0276 181.339C55.9526 181.426 55.8704 181.487 55.781 181.521C55.6916 181.559 55.5921 181.577 55.4825 181.577ZM56.0882 180.781L55.0411 178.445H55.3613L56.2873 180.53L56.0882 180.781Z" fill="#364140" fill-opacity="0.64"/>
<path d="M58.395 180.738C58.2075 180.738 58.0301 180.712 57.8628 180.66C57.6955 180.605 57.5643 180.538 57.4691 180.457L57.6075 180.214C57.6999 180.284 57.8181 180.344 57.9624 180.396C58.1066 180.445 58.258 180.47 58.4167 180.47C58.633 180.47 58.7888 180.437 58.884 180.37C58.9792 180.301 59.0268 180.21 59.0268 180.098C59.0268 180.014 58.9994 179.949 58.9446 179.903C58.8926 179.854 58.8234 179.818 58.7369 179.795C58.6503 179.769 58.5537 179.747 58.447 179.73C58.3402 179.713 58.2335 179.692 58.1268 179.669C58.0229 179.646 57.9277 179.613 57.8412 179.57C57.7547 179.524 57.684 179.462 57.6292 179.384C57.5773 179.306 57.5513 179.202 57.5513 179.072C57.5513 178.948 57.5859 178.837 57.6551 178.739C57.7244 178.641 57.8253 178.564 57.958 178.51C58.0936 178.452 58.258 178.423 58.4513 178.423C58.5984 178.423 58.7455 178.443 58.8926 178.484C59.0398 178.521 59.1609 178.572 59.2561 178.635L59.122 178.882C59.021 178.813 58.9128 178.763 58.7974 178.735C58.6821 178.703 58.5667 178.687 58.4513 178.687C58.2465 178.687 58.095 178.723 57.997 178.795C57.9018 178.864 57.8542 178.954 57.8542 179.063C57.8542 179.15 57.8801 179.218 57.9321 179.267C57.9869 179.316 58.0575 179.355 58.1441 179.384C58.2335 179.41 58.3301 179.431 58.434 179.449C58.5407 179.466 58.646 179.488 58.7499 179.513C58.8566 179.537 58.9532 179.57 59.0398 179.613C59.1292 179.653 59.1999 179.713 59.2518 179.79C59.3066 179.865 59.334 179.965 59.334 180.089C59.334 180.222 59.2965 180.337 59.2215 180.435C59.1494 180.53 59.0426 180.605 58.9013 180.66C58.7628 180.712 58.5941 180.738 58.395 180.738Z" fill="#364140" fill-opacity="0.64"/>
<path d="M42.9581 138.226C42.6388 138.226 42.3504 138.145 42.0927 137.984C41.8388 137.822 41.6388 137.588 41.4927 137.28C41.3465 136.968 41.2734 136.591 41.2734 136.149C41.2734 135.707 41.3465 135.332 41.4927 135.024C41.6388 134.713 41.8388 134.476 42.0927 134.315C42.3504 134.153 42.6388 134.072 42.9581 134.072C43.2811 134.072 43.5696 134.153 43.8234 134.315C44.0773 134.476 44.2773 134.713 44.4234 135.024C44.5734 135.332 44.6484 135.707 44.6484 136.149C44.6484 136.591 44.5734 136.968 44.4234 137.28C44.2773 137.588 44.0773 137.822 43.8234 137.984C43.5696 138.145 43.2811 138.226 42.9581 138.226ZM42.9581 137.574C43.1465 137.574 43.31 137.524 43.4484 137.424C43.5869 137.32 43.6946 137.163 43.7715 136.951C43.8523 136.74 43.8927 136.472 43.8927 136.149C43.8927 135.822 43.8523 135.555 43.7715 135.347C43.6946 135.136 43.5869 134.98 43.4484 134.88C43.31 134.776 43.1465 134.724 42.9581 134.724C42.7773 134.724 42.6157 134.776 42.4734 134.88C42.335 134.98 42.2254 135.136 42.1446 135.347C42.0677 135.555 42.0292 135.822 42.0292 136.149C42.0292 136.472 42.0677 136.74 42.1446 136.951C42.2254 137.163 42.335 137.32 42.4734 137.424C42.6157 137.524 42.7773 137.574 42.9581 137.574Z" fill="#364140"/>
<path d="M47.3151 138.168L50.0728 134.13H50.6382L47.8805 138.168H47.3151ZM47.6497 136.305C47.4612 136.305 47.2939 136.259 47.1478 136.166C47.0016 136.074 46.8882 135.945 46.8074 135.78C46.7266 135.615 46.6862 135.42 46.6862 135.197C46.6862 134.974 46.7266 134.78 46.8074 134.615C46.8882 134.449 47.0016 134.32 47.1478 134.228C47.2939 134.136 47.4612 134.09 47.6497 134.09C47.8459 134.09 48.0151 134.136 48.1574 134.228C48.3035 134.32 48.417 134.449 48.4978 134.615C48.5785 134.78 48.6189 134.974 48.6189 135.197C48.6189 135.42 48.5785 135.615 48.4978 135.78C48.417 135.945 48.3035 136.074 48.1574 136.166C48.0151 136.259 47.8459 136.305 47.6497 136.305ZM47.6555 135.901C47.8093 135.901 47.9285 135.841 48.0132 135.722C48.1016 135.599 48.1459 135.424 48.1459 135.197C48.1459 134.97 48.1016 134.797 48.0132 134.678C47.9285 134.555 47.8093 134.493 47.6555 134.493C47.5016 134.493 47.3785 134.555 47.2862 134.678C47.1978 134.801 47.1535 134.974 47.1535 135.197C47.1535 135.42 47.1978 135.593 47.2862 135.716C47.3785 135.84 47.5016 135.901 47.6555 135.901ZM50.2978 138.209C50.1093 138.209 49.942 138.163 49.7959 138.07C49.6497 137.978 49.5362 137.849 49.4555 137.684C49.3747 137.518 49.3343 137.324 49.3343 137.101C49.3343 136.878 49.3747 136.684 49.4555 136.518C49.5362 136.353 49.6497 136.224 49.7959 136.132C49.942 136.04 50.1093 135.993 50.2978 135.993C50.4939 135.993 50.6632 136.04 50.8055 136.132C50.9516 136.224 51.0651 136.353 51.1459 136.518C51.2266 136.684 51.267 136.878 51.267 137.101C51.267 137.324 51.2266 137.518 51.1459 137.684C51.0651 137.849 50.9516 137.978 50.8055 138.07C50.6632 138.163 50.4939 138.209 50.2978 138.209ZM50.2978 137.805C50.4516 137.805 50.5728 137.743 50.6612 137.62C50.7497 137.497 50.7939 137.324 50.7939 137.101C50.7939 136.878 50.7497 136.705 50.6612 136.582C50.5728 136.459 50.4516 136.397 50.2978 136.397C50.1478 136.397 50.0266 136.459 49.9343 136.582C49.8459 136.701 49.8016 136.874 49.8016 137.101C49.8016 137.328 49.8459 137.503 49.9343 137.626C50.0266 137.745 50.1478 137.805 50.2978 137.805Z" fill="#364140"/>
<path d="M41.5156 129.877V126.848H41.8358V129.877H41.5156Z" fill="#364140" fill-opacity="0.64"/>
<path d="M43.916 127.583C44.1006 127.583 44.2622 127.619 44.4006 127.691C44.542 127.761 44.6516 127.867 44.7295 128.012C44.8103 128.156 44.8506 128.338 44.8506 128.557V129.877H44.5434V128.587C44.5434 128.348 44.4828 128.167 44.3617 128.046C44.2434 127.922 44.0761 127.86 43.8598 127.86C43.6982 127.86 43.5569 127.893 43.4357 127.96C43.3175 128.023 43.2252 128.117 43.1588 128.241C43.0953 128.362 43.0636 128.509 43.0636 128.682V129.877H42.7564V127.605H43.0506V128.228L43.003 128.111C43.0752 127.947 43.1905 127.818 43.3492 127.726C43.5078 127.631 43.6968 127.583 43.916 127.583Z" fill="#364140" fill-opacity="0.64"/>
<path d="M46.3987 129.898C46.1853 129.898 46.0208 129.84 45.9055 129.725C45.7901 129.61 45.7324 129.447 45.7324 129.236V127.103H46.0396V129.219C46.0396 129.352 46.0728 129.454 46.1391 129.526C46.2083 129.598 46.3064 129.634 46.4333 129.634C46.5689 129.634 46.6814 129.595 46.7708 129.517L46.879 129.738C46.8184 129.793 46.7449 129.833 46.6583 129.859C46.5747 129.885 46.4882 129.898 46.3987 129.898ZM45.3256 127.86V127.605H46.7319V127.86H45.3256Z" fill="#364140" fill-opacity="0.64"/>
<path d="M48.3229 129.898C48.0864 129.898 47.8787 129.849 47.6998 129.751C47.521 129.65 47.3811 129.513 47.2801 129.34C47.1791 129.164 47.1287 128.964 47.1287 128.739C47.1287 128.514 47.1763 128.314 47.2714 128.141C47.3695 127.968 47.5022 127.833 47.6695 127.735C47.8397 127.634 48.0301 127.583 48.2407 127.583C48.4541 127.583 48.6431 127.632 48.8075 127.73C48.9748 127.826 49.1061 127.961 49.2013 128.137C49.2964 128.31 49.344 128.511 49.344 128.739C49.344 128.753 49.3426 128.769 49.3397 128.786C49.3397 128.801 49.3397 128.816 49.3397 128.834H47.3623V128.604H49.1753L49.0541 128.695C49.0541 128.531 49.0181 128.385 48.946 128.258C48.8767 128.128 48.7815 128.027 48.6604 127.955C48.5392 127.883 48.3993 127.847 48.2407 127.847C48.0849 127.847 47.945 127.883 47.821 127.955C47.6969 128.027 47.6003 128.128 47.5311 128.258C47.4618 128.388 47.4272 128.537 47.4272 128.704V128.752C47.4272 128.925 47.4647 129.077 47.5397 129.21C47.6176 129.34 47.7243 129.442 47.8599 129.517C47.9984 129.589 48.1556 129.626 48.3315 129.626C48.47 129.626 48.5984 129.601 48.7166 129.552C48.8378 129.503 48.9416 129.428 49.0282 129.327L49.2013 129.526C49.1003 129.647 48.9734 129.739 48.8205 129.803C48.6705 129.866 48.5046 129.898 48.3229 129.898Z" fill="#364140" fill-opacity="0.64"/>
<path d="M49.9694 129.877V127.605H50.2636V128.224L50.2333 128.115C50.2968 127.942 50.4035 127.811 50.5535 127.722C50.7035 127.629 50.8895 127.583 51.1117 127.583V127.882C51.1001 127.882 51.0886 127.882 51.077 127.882C51.0655 127.879 51.054 127.877 51.0424 127.877C50.803 127.877 50.6155 127.951 50.4799 128.098C50.3444 128.242 50.2766 128.449 50.2766 128.717V129.877H49.9694Z" fill="#364140" fill-opacity="0.64"/>
<path d="M52.616 129.898C52.3795 129.898 52.1718 129.849 51.9929 129.751C51.8141 129.65 51.6742 129.513 51.5732 129.34C51.4723 129.164 51.4218 128.964 51.4218 128.739C51.4218 128.514 51.4694 128.314 51.5646 128.141C51.6626 127.968 51.7953 127.833 51.9626 127.735C52.1328 127.634 52.3232 127.583 52.5338 127.583C52.7473 127.583 52.9362 127.632 53.1006 127.73C53.2679 127.826 53.3992 127.961 53.4944 128.137C53.5896 128.31 53.6372 128.511 53.6372 128.739C53.6372 128.753 53.6357 128.769 53.6328 128.786C53.6328 128.801 53.6328 128.816 53.6328 128.834H51.6554V128.604H53.4684L53.3473 128.695C53.3473 128.531 53.3112 128.385 53.2391 128.258C53.1699 128.128 53.0747 128.027 52.9535 127.955C52.8324 127.883 52.6925 127.847 52.5338 127.847C52.378 127.847 52.2381 127.883 52.1141 127.955C51.99 128.027 51.8934 128.128 51.8242 128.258C51.755 128.388 51.7203 128.537 51.7203 128.704V128.752C51.7203 128.925 51.7578 129.077 51.8328 129.21C51.9107 129.34 52.0175 129.442 52.153 129.517C52.2915 129.589 52.4487 129.626 52.6247 129.626C52.7631 129.626 52.8915 129.601 53.0098 129.552C53.1309 129.503 53.2348 129.428 53.3213 129.327L53.4944 129.526C53.3934 129.647 53.2665 129.739 53.1136 129.803C52.9636 129.866 52.7977 129.898 52.616 129.898Z" fill="#364140" fill-opacity="0.64"/>
<path d="M54.8726 129.898C54.6851 129.898 54.5077 129.872 54.3404 129.82C54.173 129.765 54.0418 129.698 53.9466 129.617L54.0851 129.375C54.1774 129.444 54.2956 129.504 54.4399 129.556C54.5841 129.605 54.7355 129.63 54.8942 129.63C55.1105 129.63 55.2663 129.597 55.3615 129.53C55.4567 129.461 55.5043 129.37 55.5043 129.258C55.5043 129.174 55.4769 129.109 55.4221 129.063C55.3702 129.014 55.3009 128.978 55.2144 128.955C55.1279 128.929 55.0312 128.907 54.9245 128.89C54.8178 128.873 54.711 128.852 54.6043 128.829C54.5005 128.806 54.4053 128.773 54.3187 128.73C54.2322 128.684 54.1615 128.622 54.1067 128.544C54.0548 128.466 54.0288 128.362 54.0288 128.232C54.0288 128.108 54.0634 127.997 54.1327 127.899C54.2019 127.801 54.3029 127.725 54.4355 127.67C54.5711 127.612 54.7355 127.583 54.9288 127.583C55.0759 127.583 55.223 127.603 55.3702 127.644C55.5173 127.681 55.6384 127.732 55.7336 127.795L55.5995 128.042C55.4985 127.973 55.3904 127.924 55.275 127.895C55.1596 127.863 55.0442 127.847 54.9288 127.847C54.724 127.847 54.5726 127.883 54.4745 127.955C54.3793 128.025 54.3317 128.114 54.3317 128.224C54.3317 128.31 54.3577 128.378 54.4096 128.427C54.4644 128.476 54.5351 128.515 54.6216 128.544C54.711 128.57 54.8077 128.591 54.9115 128.609C55.0182 128.626 55.1235 128.648 55.2274 128.674C55.3341 128.697 55.4307 128.73 55.5173 128.773C55.6067 128.814 55.6774 128.873 55.7293 128.951C55.7841 129.026 55.8115 129.125 55.8115 129.249C55.8115 129.382 55.774 129.497 55.699 129.595C55.6269 129.69 55.5202 129.765 55.3788 129.82C55.2404 129.872 55.0716 129.898 54.8726 129.898Z" fill="#364140" fill-opacity="0.64"/>
<path d="M57.0935 129.898C56.88 129.898 56.7156 129.84 56.6002 129.725C56.4848 129.61 56.4271 129.447 56.4271 129.236V127.103H56.7344V129.219C56.7344 129.352 56.7675 129.454 56.8339 129.526C56.9031 129.598 57.0012 129.634 57.1281 129.634C57.2637 129.634 57.3762 129.595 57.4656 129.517L57.5738 129.738C57.5132 129.793 57.4396 129.833 57.3531 129.859C57.2695 129.885 57.1829 129.898 57.0935 129.898ZM56.0204 127.86V127.605H57.4267V127.86H56.0204Z" fill="#364140" fill-opacity="0.64"/>
<path d="M60.4381 129.898C60.2419 129.898 60.0645 129.853 59.9059 129.764C59.7472 129.672 59.6203 129.54 59.5251 129.37C59.4328 129.197 59.3866 128.987 59.3866 128.739C59.3866 128.49 59.4328 128.281 59.5251 128.111C59.6174 127.938 59.7429 127.807 59.9015 127.717C60.0602 127.628 60.239 127.583 60.4381 127.583C60.6544 127.583 60.8477 127.632 61.0179 127.73C61.191 127.826 61.3265 127.961 61.4246 128.137C61.5227 128.31 61.5717 128.511 61.5717 128.739C61.5717 128.969 61.5227 129.171 61.4246 129.344C61.3265 129.517 61.191 129.653 61.0179 129.751C60.8477 129.849 60.6544 129.898 60.4381 129.898ZM59.2655 130.716V127.605H59.5597V128.289L59.5294 128.743L59.5727 129.202V130.716H59.2655ZM60.4164 129.626C60.578 129.626 60.7222 129.589 60.8491 129.517C60.9761 129.442 61.077 129.339 61.152 129.206C61.227 129.07 61.2645 128.914 61.2645 128.739C61.2645 128.563 61.227 128.408 61.152 128.276C61.077 128.143 60.9761 128.039 60.8491 127.964C60.7222 127.889 60.578 127.852 60.4164 127.852C60.2549 127.852 60.1092 127.889 59.9794 127.964C59.8525 128.039 59.7515 128.143 59.6765 128.276C59.6044 128.408 59.5684 128.563 59.5684 128.739C59.5684 128.914 59.6044 129.07 59.6765 129.206C59.7515 129.339 59.8525 129.442 59.9794 129.517C60.1092 129.589 60.2549 129.626 60.4164 129.626Z" fill="#364140" fill-opacity="0.64"/>
<path d="M63.1629 129.898C62.9263 129.898 62.7187 129.849 62.5398 129.751C62.361 129.65 62.2211 129.513 62.1201 129.34C62.0191 129.164 61.9687 128.964 61.9687 128.739C61.9687 128.514 62.0162 128.314 62.1114 128.141C62.2095 127.968 62.3422 127.833 62.5095 127.735C62.6797 127.634 62.8701 127.583 63.0807 127.583C63.2941 127.583 63.4831 127.632 63.6475 127.73C63.8148 127.826 63.9461 127.961 64.0412 128.137C64.1364 128.31 64.184 128.511 64.184 128.739C64.184 128.753 64.1826 128.769 64.1797 128.786C64.1797 128.801 64.1797 128.816 64.1797 128.834H62.2023V128.604H64.0153L63.8941 128.695C63.8941 128.531 63.8581 128.385 63.786 128.258C63.7167 128.128 63.6215 128.027 63.5004 127.955C63.3792 127.883 63.2393 127.847 63.0807 127.847C62.9249 127.847 62.785 127.883 62.661 127.955C62.5369 128.027 62.4403 128.128 62.3711 128.258C62.3018 128.388 62.2672 128.537 62.2672 128.704V128.752C62.2672 128.925 62.3047 129.077 62.3797 129.21C62.4576 129.34 62.5643 129.442 62.6999 129.517C62.8384 129.589 62.9956 129.626 63.1715 129.626C63.31 129.626 63.4384 129.601 63.5566 129.552C63.6778 129.503 63.7816 129.428 63.8682 129.327L64.0412 129.526C63.9403 129.647 63.8134 129.739 63.6605 129.803C63.5105 129.866 63.3446 129.898 63.1629 129.898Z" fill="#364140" fill-opacity="0.64"/>
<path d="M64.8093 129.877V127.605H65.1036V128.224L65.0733 128.115C65.1367 127.942 65.2435 127.811 65.3935 127.722C65.5435 127.629 65.7295 127.583 65.9517 127.583V127.882C65.9401 127.882 65.9286 127.882 65.917 127.882C65.9055 127.879 65.894 127.877 65.8824 127.877C65.643 127.877 65.4555 127.951 65.3199 128.098C65.1843 128.242 65.1166 128.449 65.1166 128.717V129.877H64.8093Z" fill="#364140" fill-opacity="0.64"/>
<path d="M69.102 129.877V129.375L69.089 129.292V128.453C69.089 128.26 69.0342 128.111 68.9246 128.007C68.8179 127.903 68.6578 127.852 68.4443 127.852C68.2972 127.852 68.1573 127.876 68.0246 127.925C67.8919 127.974 67.7794 128.039 67.6871 128.12L67.5487 127.89C67.664 127.792 67.8025 127.717 67.964 127.665C68.1256 127.611 68.2958 127.583 68.4746 127.583C68.7689 127.583 68.9953 127.657 69.1539 127.804C69.3155 127.948 69.3963 128.169 69.3963 128.466V129.877H69.102ZM68.3188 129.898C68.1487 129.898 68.0001 129.871 67.8732 129.816C67.7491 129.758 67.6539 129.68 67.5876 129.582C67.5213 129.481 67.4881 129.366 67.4881 129.236C67.4881 129.118 67.5155 129.011 67.5703 128.916C67.628 128.818 67.7203 128.74 67.8472 128.682C67.977 128.622 68.1501 128.591 68.3664 128.591H69.1496V128.821H68.3751C68.1559 128.821 68.003 128.86 67.9164 128.938C67.8328 129.015 67.791 129.112 67.791 129.227C67.791 129.357 67.8414 129.461 67.9424 129.539C68.0434 129.617 68.1847 129.656 68.3664 129.656C68.5395 129.656 68.6881 129.617 68.8121 129.539C68.939 129.458 69.0313 129.343 69.089 129.193L69.1583 129.405C69.1006 129.555 68.9996 129.675 68.8554 129.764C68.714 129.853 68.5352 129.898 68.3188 129.898Z" fill="#364140" fill-opacity="0.64"/>
<path d="M71.3903 127.583C71.5749 127.583 71.7364 127.619 71.8749 127.691C72.0163 127.761 72.1259 127.867 72.2038 128.012C72.2845 128.156 72.3249 128.338 72.3249 128.557V129.877H72.0177V128.587C72.0177 128.348 71.9571 128.167 71.836 128.046C71.7177 127.922 71.5504 127.86 71.334 127.86C71.1725 127.86 71.0312 127.893 70.91 127.96C70.7917 128.023 70.6994 128.117 70.6331 128.241C70.5696 128.362 70.5379 128.509 70.5379 128.682V129.877H70.2307V127.605H70.5249V128.228L70.4773 128.111C70.5494 127.947 70.6648 127.818 70.8235 127.726C70.9821 127.631 71.1711 127.583 71.3903 127.583Z" fill="#364140" fill-opacity="0.64"/>
<path d="M74.3143 127.583C74.499 127.583 74.6605 127.619 74.799 127.691C74.9403 127.761 75.0499 127.867 75.1278 128.012C75.2086 128.156 75.249 128.338 75.249 128.557V129.877H74.9417V128.587C74.9417 128.348 74.8812 128.167 74.76 128.046C74.6418 127.922 74.4744 127.86 74.2581 127.86C74.0966 127.86 73.9552 127.893 73.8341 127.96C73.7158 128.023 73.6235 128.117 73.5571 128.241C73.4937 128.362 73.4619 128.509 73.4619 128.682V129.877H73.1547V127.605H73.449V128.228L73.4014 128.111C73.4735 127.947 73.5889 127.818 73.7475 127.726C73.9062 127.631 74.0951 127.583 74.3143 127.583Z" fill="#364140" fill-opacity="0.64"/>
<path d="M77.0177 129.898C76.8245 129.898 76.6557 129.862 76.5115 129.79C76.3672 129.718 76.2547 129.61 76.174 129.465C76.0961 129.321 76.0571 129.141 76.0571 128.925V127.605H76.3644V128.89C76.3644 129.132 76.4235 129.315 76.5418 129.439C76.6629 129.561 76.8317 129.621 77.048 129.621C77.2067 129.621 77.3437 129.589 77.4591 129.526C77.5773 129.46 77.6668 129.364 77.7273 129.24C77.7908 129.116 77.8225 128.968 77.8225 128.795V127.605H78.1297V129.877H77.8355V129.253L77.8831 129.366C77.811 129.533 77.6985 129.664 77.5456 129.76C77.3956 129.852 77.2196 129.898 77.0177 129.898Z" fill="#364140" fill-opacity="0.64"/>
<path d="M81.8244 127.583C82.009 127.583 82.1691 127.619 82.3047 127.691C82.4431 127.761 82.5499 127.867 82.6249 128.012C82.7028 128.156 82.7417 128.338 82.7417 128.557V129.877H82.4345V128.587C82.4345 128.348 82.3768 128.167 82.2614 128.046C82.1489 127.922 81.9888 127.86 81.7811 127.86C81.6254 127.86 81.4898 127.893 81.3744 127.96C81.2619 128.023 81.1739 128.117 81.1105 128.241C81.0499 128.362 81.0196 128.509 81.0196 128.682V129.877H80.7124V128.587C80.7124 128.348 80.6547 128.167 80.5393 128.046C80.4239 127.922 80.2624 127.86 80.0547 127.86C79.9018 127.86 79.7677 127.893 79.6523 127.96C79.5369 128.023 79.4475 128.117 79.384 128.241C79.3234 128.362 79.2931 128.509 79.2931 128.682V129.877H78.9859V127.605H79.2802V128.219L79.2326 128.111C79.3018 127.947 79.4129 127.818 79.5657 127.726C79.7215 127.631 79.9047 127.583 80.1153 127.583C80.3374 127.583 80.5263 127.639 80.6821 127.752C80.8379 127.862 80.9388 128.027 80.985 128.25L80.8638 128.202C80.9302 128.017 81.047 127.869 81.2143 127.756C81.3845 127.641 81.5879 127.583 81.8244 127.583Z" fill="#364140" fill-opacity="0.64"/>
<path d="M137.953 137.251V136.732L139.944 134.13H140.745L138.784 136.732L138.409 136.616H141.611V137.251H137.953ZM140.169 138.168V137.251L140.192 136.616V135.803H140.895V138.168H140.169Z" fill="#364140"/>
<path d="M143.265 138.226C142.98 138.226 142.701 138.186 142.428 138.105C142.159 138.02 141.932 137.905 141.748 137.759L142.065 137.176C142.211 137.295 142.388 137.391 142.596 137.465C142.807 137.538 143.026 137.574 143.253 137.574C143.519 137.574 143.726 137.518 143.876 137.407C144.03 137.295 144.107 137.145 144.107 136.957C144.107 136.83 144.075 136.718 144.009 136.622C143.948 136.526 143.836 136.453 143.675 136.403C143.517 136.353 143.3 136.328 143.023 136.328H142.048L142.255 134.13H144.626V134.759H142.532L142.925 134.401L142.769 136.045L142.376 135.693H143.19C143.59 135.693 143.911 135.747 144.153 135.855C144.4 135.959 144.578 136.105 144.69 136.293C144.805 136.478 144.863 136.69 144.863 136.928C144.863 137.163 144.805 137.378 144.69 137.574C144.575 137.77 144.398 137.928 144.159 138.047C143.925 138.166 143.626 138.226 143.265 138.226Z" fill="#364140"/>
<path d="M145.324 139.04L145.659 137.765L145.757 138.191C145.623 138.191 145.509 138.151 145.417 138.07C145.328 137.986 145.284 137.872 145.284 137.73C145.284 137.584 145.328 137.468 145.417 137.384C145.509 137.295 145.621 137.251 145.751 137.251C145.886 137.251 145.998 137.295 146.086 137.384C146.174 137.472 146.219 137.588 146.219 137.73C146.219 137.768 146.215 137.811 146.207 137.857C146.199 137.899 146.186 137.949 146.167 138.007C146.151 138.065 146.124 138.138 146.086 138.226L145.792 139.04H145.324Z" fill="#364140"/>
<path d="M148.321 138.226C148.002 138.226 147.713 138.145 147.456 137.984C147.202 137.822 147.002 137.588 146.856 137.28C146.71 136.968 146.636 136.591 146.636 136.149C146.636 135.707 146.71 135.332 146.856 135.024C147.002 134.713 147.202 134.476 147.456 134.315C147.713 134.153 148.002 134.072 148.321 134.072C148.644 134.072 148.933 134.153 149.186 134.315C149.44 134.476 149.64 134.713 149.786 135.024C149.936 135.332 150.011 135.707 150.011 136.149C150.011 136.591 149.936 136.968 149.786 137.28C149.64 137.588 149.44 137.822 149.186 137.984C148.933 138.145 148.644 138.226 148.321 138.226ZM148.321 137.574C148.51 137.574 148.673 137.524 148.811 137.424C148.95 137.32 149.058 137.163 149.135 136.951C149.215 136.74 149.256 136.472 149.256 136.149C149.256 135.822 149.215 135.555 149.135 135.347C149.058 135.136 148.95 134.98 148.811 134.88C148.673 134.776 148.51 134.724 148.321 134.724C148.14 134.724 147.979 134.776 147.836 134.88C147.698 134.98 147.588 135.136 147.508 135.347C147.431 135.555 147.392 135.822 147.392 136.149C147.392 136.472 147.431 136.74 147.508 136.951C147.588 137.163 147.698 137.32 147.836 137.424C147.979 137.524 148.14 137.574 148.321 137.574Z" fill="#364140"/>
<path d="M152.203 138.226C151.884 138.226 151.595 138.145 151.338 137.984C151.084 137.822 150.884 137.588 150.738 137.28C150.591 136.968 150.518 136.591 150.518 136.149C150.518 135.707 150.591 135.332 150.738 135.024C150.884 134.713 151.084 134.476 151.338 134.315C151.595 134.153 151.884 134.072 152.203 134.072C152.526 134.072 152.814 134.153 153.068 134.315C153.322 134.476 153.522 134.713 153.668 135.024C153.818 135.332 153.893 135.707 153.893 136.149C153.893 136.591 153.818 136.968 153.668 137.28C153.522 137.588 153.322 137.822 153.068 137.984C152.814 138.145 152.526 138.226 152.203 138.226ZM152.203 137.574C152.391 137.574 152.555 137.524 152.693 137.424C152.832 137.32 152.939 137.163 153.016 136.951C153.097 136.74 153.138 136.472 153.138 136.149C153.138 135.822 153.097 135.555 153.016 135.347C152.939 135.136 152.832 134.98 152.693 134.88C152.555 134.776 152.391 134.724 152.203 134.724C152.022 134.724 151.861 134.776 151.718 134.88C151.58 134.98 151.47 135.136 151.389 135.347C151.313 135.555 151.274 135.822 151.274 136.149C151.274 136.472 151.313 136.74 151.389 136.951C151.47 137.163 151.58 137.32 151.718 137.424C151.861 137.524 152.022 137.574 152.203 137.574Z" fill="#364140"/>
<path d="M156.085 138.226C155.766 138.226 155.477 138.145 155.219 137.984C154.966 137.822 154.766 137.588 154.619 137.28C154.473 136.968 154.4 136.591 154.4 136.149C154.4 135.707 154.473 135.332 154.619 135.024C154.766 134.713 154.966 134.476 155.219 134.315C155.477 134.153 155.766 134.072 156.085 134.072C156.408 134.072 156.696 134.153 156.95 134.315C157.204 134.476 157.404 134.713 157.55 135.024C157.7 135.332 157.775 135.707 157.775 136.149C157.775 136.591 157.7 136.968 157.55 137.28C157.404 137.588 157.204 137.822 156.95 137.984C156.696 138.145 156.408 138.226 156.085 138.226ZM156.085 137.574C156.273 137.574 156.437 137.524 156.575 137.424C156.714 137.32 156.821 137.163 156.898 136.951C156.979 136.74 157.019 136.472 157.019 136.149C157.019 135.822 156.979 135.555 156.898 135.347C156.821 135.136 156.714 134.98 156.575 134.88C156.437 134.776 156.273 134.724 156.085 134.724C155.904 134.724 155.742 134.776 155.6 134.88C155.462 134.98 155.352 135.136 155.271 135.347C155.194 135.555 155.156 135.822 155.156 136.149C155.156 136.472 155.194 136.74 155.271 136.951C155.352 137.163 155.462 137.32 155.6 137.424C155.742 137.524 155.904 137.574 156.085 137.574Z" fill="#364140"/>
<path d="M158.664 138.209C158.534 138.209 158.422 138.165 158.33 138.076C158.237 137.984 158.191 137.868 158.191 137.73C158.191 137.584 158.237 137.468 158.33 137.384C158.422 137.295 158.534 137.251 158.664 137.251C158.795 137.251 158.907 137.295 158.999 137.384C159.091 137.468 159.137 137.584 159.137 137.73C159.137 137.868 159.091 137.984 158.999 138.076C158.907 138.165 158.795 138.209 158.664 138.209Z" fill="#364140"/>
<path d="M161.24 138.226C160.921 138.226 160.632 138.145 160.375 137.984C160.121 137.822 159.921 137.588 159.775 137.28C159.628 136.968 159.555 136.591 159.555 136.149C159.555 135.707 159.628 135.332 159.775 135.024C159.921 134.713 160.121 134.476 160.375 134.315C160.632 134.153 160.921 134.072 161.24 134.072C161.563 134.072 161.851 134.153 162.105 134.315C162.359 134.476 162.559 134.713 162.705 135.024C162.855 135.332 162.93 135.707 162.93 136.149C162.93 136.591 162.855 136.968 162.705 137.28C162.559 137.588 162.359 137.822 162.105 137.984C161.851 138.145 161.563 138.226 161.24 138.226ZM161.24 137.574C161.428 137.574 161.592 137.524 161.73 137.424C161.869 137.32 161.976 137.163 162.053 136.951C162.134 136.74 162.175 136.472 162.175 136.149C162.175 135.822 162.134 135.555 162.053 135.347C161.976 135.136 161.869 134.98 161.73 134.88C161.592 134.776 161.428 134.724 161.24 134.724C161.059 134.724 160.898 134.776 160.755 134.88C160.617 134.98 160.507 135.136 160.426 135.347C160.35 135.555 160.311 135.822 160.311 136.149C160.311 136.472 160.35 136.74 160.426 136.951C160.507 137.163 160.617 137.32 160.755 137.424C160.898 137.524 161.059 137.574 161.24 137.574Z" fill="#364140"/>
<path d="M165.122 138.226C164.803 138.226 164.514 138.145 164.256 137.984C164.003 137.822 163.803 137.588 163.656 137.28C163.51 136.968 163.437 136.591 163.437 136.149C163.437 135.707 163.51 135.332 163.656 135.024C163.803 134.713 164.003 134.476 164.256 134.315C164.514 134.153 164.803 134.072 165.122 134.072C165.445 134.072 165.733 134.153 165.987 134.315C166.241 134.476 166.441 134.713 166.587 135.024C166.737 135.332 166.812 135.707 166.812 136.149C166.812 136.591 166.737 136.968 166.587 137.28C166.441 137.588 166.241 137.822 165.987 137.984C165.733 138.145 165.445 138.226 165.122 138.226ZM165.122 137.574C165.31 137.574 165.474 137.524 165.612 137.424C165.751 137.32 165.858 137.163 165.935 136.951C166.016 136.74 166.056 136.472 166.056 136.149C166.056 135.822 166.016 135.555 165.935 135.347C165.858 135.136 165.751 134.98 165.612 134.88C165.474 134.776 165.31 134.724 165.122 134.724C164.941 134.724 164.779 134.776 164.637 134.88C164.499 134.98 164.389 135.136 164.308 135.347C164.231 135.555 164.193 135.822 164.193 136.149C164.193 136.472 164.231 136.74 164.308 136.951C164.389 137.163 164.499 137.32 164.637 137.424C164.779 137.524 164.941 137.574 165.122 137.574Z" fill="#364140"/>
<path d="M168.833 136.749V136.345H171.936V136.749H168.833ZM168.833 135.953V135.549H171.936V135.953H168.833ZM171.567 138.226C171.256 138.226 170.967 138.176 170.702 138.076C170.44 137.972 170.213 137.828 170.021 137.643C169.829 137.455 169.679 137.234 169.571 136.98C169.463 136.726 169.41 136.449 169.41 136.149C169.41 135.849 169.463 135.572 169.571 135.318C169.679 135.065 169.829 134.845 170.021 134.661C170.213 134.472 170.44 134.328 170.702 134.228C170.967 134.124 171.256 134.072 171.567 134.072C171.898 134.072 172.2 134.13 172.473 134.245C172.75 134.357 172.981 134.524 173.165 134.747L172.686 135.203C172.54 135.045 172.377 134.928 172.196 134.851C172.015 134.77 171.819 134.73 171.608 134.73C171.396 134.73 171.202 134.765 171.025 134.834C170.852 134.903 170.7 135.001 170.569 135.128C170.442 135.255 170.342 135.405 170.269 135.578C170.196 135.751 170.16 135.941 170.16 136.149C170.16 136.357 170.196 136.547 170.269 136.72C170.342 136.893 170.442 137.043 170.569 137.17C170.7 137.297 170.852 137.395 171.025 137.465C171.202 137.534 171.396 137.568 171.608 137.568C171.819 137.568 172.015 137.53 172.196 137.453C172.377 137.372 172.54 137.251 172.686 137.09L173.165 137.551C172.981 137.77 172.75 137.938 172.473 138.053C172.2 138.168 171.898 138.226 171.567 138.226Z" fill="#364140"/>
<path d="M144.578 129.877V126.848H144.898V129.6H146.594V129.877H144.578Z" fill="#364140" fill-opacity="0.64"/>
<path d="M147.953 129.898C147.734 129.898 147.537 129.849 147.361 129.751C147.187 129.65 147.05 129.513 146.95 129.34C146.849 129.164 146.798 128.964 146.798 128.739C146.798 128.511 146.849 128.31 146.95 128.137C147.05 127.964 147.187 127.828 147.361 127.73C147.534 127.632 147.731 127.583 147.953 127.583C148.178 127.583 148.377 127.632 148.55 127.73C148.726 127.828 148.863 127.964 148.962 128.137C149.062 128.31 149.113 128.511 149.113 128.739C149.113 128.964 149.062 129.164 148.962 129.34C148.863 129.513 148.726 129.65 148.55 129.751C148.375 129.849 148.175 129.898 147.953 129.898ZM147.953 129.626C148.118 129.626 148.263 129.589 148.39 129.517C148.517 129.442 148.617 129.339 148.689 129.206C148.764 129.07 148.801 128.914 148.801 128.739C148.801 128.56 148.764 128.404 148.689 128.271C148.617 128.139 148.517 128.036 148.39 127.964C148.263 127.889 148.119 127.852 147.958 127.852C147.796 127.852 147.652 127.889 147.525 127.964C147.398 128.036 147.297 128.139 147.222 128.271C147.147 128.404 147.11 128.56 147.11 128.739C147.11 128.914 147.147 129.07 147.222 129.206C147.297 129.339 147.398 129.442 147.525 129.517C147.652 129.589 147.795 129.626 147.953 129.626Z" fill="#364140" fill-opacity="0.64"/>
<path d="M151.151 129.877V129.375L151.138 129.292V128.453C151.138 128.26 151.083 128.111 150.974 128.007C150.867 127.903 150.707 127.852 150.493 127.852C150.346 127.852 150.206 127.876 150.074 127.925C149.941 127.974 149.828 128.039 149.736 128.12L149.598 127.89C149.713 127.792 149.852 127.717 150.013 127.665C150.175 127.611 150.345 127.583 150.524 127.583C150.818 127.583 151.044 127.657 151.203 127.804C151.365 127.948 151.445 128.169 151.445 128.466V129.877H151.151ZM150.368 129.898C150.198 129.898 150.049 129.871 149.922 129.816C149.798 129.758 149.703 129.68 149.637 129.582C149.57 129.481 149.537 129.366 149.537 129.236C149.537 129.118 149.565 129.011 149.619 128.916C149.677 128.818 149.769 128.74 149.896 128.682C150.026 128.622 150.199 128.591 150.415 128.591H151.199V128.821H150.424C150.205 128.821 150.052 128.86 149.965 128.938C149.882 129.015 149.84 129.112 149.84 129.227C149.84 129.357 149.89 129.461 149.991 129.539C150.092 129.617 150.234 129.656 150.415 129.656C150.589 129.656 150.737 129.617 150.861 129.539C150.988 129.458 151.08 129.343 151.138 129.193L151.207 129.405C151.15 129.555 151.049 129.675 150.904 129.764C150.763 129.853 150.584 129.898 150.368 129.898Z" fill="#364140" fill-opacity="0.64"/>
<path d="M153.439 127.583C153.624 127.583 153.785 127.619 153.924 127.691C154.065 127.761 154.175 127.867 154.253 128.012C154.334 128.156 154.374 128.338 154.374 128.557V129.877H154.067V128.587C154.067 128.348 154.006 128.167 153.885 128.046C153.767 127.922 153.599 127.86 153.383 127.86C153.222 127.86 153.08 127.893 152.959 127.96C152.841 128.023 152.748 128.117 152.682 128.241C152.619 128.362 152.587 128.509 152.587 128.682V129.877H152.28V127.605H152.574V128.228L152.526 128.111C152.598 127.947 152.714 127.818 152.872 127.726C153.031 127.631 153.22 127.583 153.439 127.583Z" fill="#364140" fill-opacity="0.64"/>
<path d="M157.76 129.877V129.375L157.747 129.292V128.453C157.747 128.26 157.692 128.111 157.582 128.007C157.476 127.903 157.316 127.852 157.102 127.852C156.955 127.852 156.815 127.876 156.682 127.925C156.55 127.974 156.437 128.039 156.345 128.12L156.206 127.89C156.322 127.792 156.46 127.717 156.622 127.665C156.783 127.611 156.954 127.583 157.132 127.583C157.427 127.583 157.653 127.657 157.812 127.804C157.973 127.948 158.054 128.169 158.054 128.466V129.877H157.76ZM156.977 129.898C156.806 129.898 156.658 129.871 156.531 129.816C156.407 129.758 156.312 129.68 156.245 129.582C156.179 129.481 156.146 129.366 156.146 129.236C156.146 129.118 156.173 129.011 156.228 128.916C156.286 128.818 156.378 128.74 156.505 128.682C156.635 128.622 156.808 128.591 157.024 128.591H157.807V128.821H157.033C156.814 128.821 156.661 128.86 156.574 128.938C156.491 129.015 156.449 129.112 156.449 129.227C156.449 129.357 156.499 129.461 156.6 129.539C156.701 129.617 156.842 129.656 157.024 129.656C157.197 129.656 157.346 129.617 157.47 129.539C157.597 129.458 157.689 129.343 157.747 129.193L157.816 129.405C157.758 129.555 157.657 129.675 157.513 129.764C157.372 129.853 157.193 129.898 156.977 129.898Z" fill="#364140" fill-opacity="0.64"/>
<path d="M161.727 127.583C161.911 127.583 162.072 127.619 162.207 127.691C162.346 127.761 162.452 127.867 162.527 128.012C162.605 128.156 162.644 128.338 162.644 128.557V129.877H162.337V128.587C162.337 128.348 162.279 128.167 162.164 128.046C162.051 127.922 161.891 127.86 161.684 127.86C161.528 127.86 161.392 127.893 161.277 127.96C161.164 128.023 161.076 128.117 161.013 128.241C160.952 128.362 160.922 128.509 160.922 128.682V129.877H160.615V128.587C160.615 128.348 160.557 128.167 160.442 128.046C160.326 127.922 160.165 127.86 159.957 127.86C159.804 127.86 159.67 127.893 159.555 127.96C159.439 128.023 159.35 128.117 159.286 128.241C159.226 128.362 159.196 128.509 159.196 128.682V129.877H158.888V127.605H159.183V128.219L159.135 128.111C159.204 127.947 159.315 127.818 159.468 127.726C159.624 127.631 159.807 127.583 160.018 127.583C160.24 127.583 160.429 127.639 160.585 127.752C160.74 127.862 160.841 128.027 160.887 128.25L160.766 128.202C160.833 128.017 160.949 127.869 161.117 127.756C161.287 127.641 161.49 127.583 161.727 127.583Z" fill="#364140" fill-opacity="0.64"/>
<path d="M164.403 129.898C164.184 129.898 163.986 129.849 163.81 129.751C163.637 129.65 163.5 129.513 163.399 129.34C163.298 129.164 163.248 128.964 163.248 128.739C163.248 128.511 163.298 128.31 163.399 128.137C163.5 127.964 163.637 127.828 163.81 127.73C163.984 127.632 164.181 127.583 164.403 127.583C164.628 127.583 164.827 127.632 165 127.73C165.176 127.828 165.313 127.964 165.411 128.137C165.512 128.31 165.563 128.511 165.563 128.739C165.563 128.964 165.512 129.164 165.411 129.34C165.313 129.513 165.176 129.65 165 129.751C164.824 129.849 164.625 129.898 164.403 129.898ZM164.403 129.626C164.568 129.626 164.713 129.589 164.84 129.517C164.967 129.442 165.067 129.339 165.139 129.206C165.214 129.07 165.251 128.914 165.251 128.739C165.251 128.56 165.214 128.404 165.139 128.271C165.067 128.139 164.967 128.036 164.84 127.964C164.713 127.889 164.569 127.852 164.408 127.852C164.246 127.852 164.102 127.889 163.975 127.964C163.848 128.036 163.747 128.139 163.672 128.271C163.597 128.404 163.56 128.56 163.56 128.739C163.56 128.914 163.597 129.07 163.672 129.206C163.747 129.339 163.848 129.442 163.975 129.517C164.102 129.589 164.245 129.626 164.403 129.626Z" fill="#364140" fill-opacity="0.64"/>
<path d="M167.129 129.898C166.936 129.898 166.767 129.862 166.623 129.79C166.479 129.718 166.366 129.61 166.285 129.465C166.207 129.321 166.168 129.141 166.168 128.925V127.605H166.476V128.89C166.476 129.132 166.535 129.315 166.653 129.439C166.774 129.561 166.943 129.621 167.159 129.621C167.318 129.621 167.455 129.589 167.57 129.526C167.689 129.46 167.778 129.364 167.839 129.24C167.902 129.116 167.934 128.968 167.934 128.795V127.605H168.241V129.877H167.947V129.253L167.994 129.366C167.922 129.533 167.81 129.664 167.657 129.76C167.507 129.852 167.331 129.898 167.129 129.898Z" fill="#364140" fill-opacity="0.64"/>
<path d="M170.257 127.583C170.441 127.583 170.603 127.619 170.741 127.691C170.883 127.761 170.992 127.867 171.07 128.012C171.151 128.156 171.191 128.338 171.191 128.557V129.877H170.884V128.587C170.884 128.348 170.824 128.167 170.703 128.046C170.584 127.922 170.417 127.86 170.201 127.86C170.039 127.86 169.898 127.893 169.777 127.96C169.658 128.023 169.566 128.117 169.5 128.241C169.436 128.362 169.404 128.509 169.404 128.682V129.877H169.097V127.605H169.391V128.228L169.344 128.111C169.416 127.947 169.531 127.818 169.69 127.726C169.849 127.631 170.038 127.583 170.257 127.583Z" fill="#364140" fill-opacity="0.64"/>
<path d="M172.74 129.898C172.526 129.898 172.362 129.84 172.246 129.725C172.131 129.61 172.073 129.447 172.073 129.236V127.103H172.38V129.219C172.38 129.352 172.414 129.454 172.48 129.526C172.549 129.598 172.647 129.634 172.774 129.634C172.91 129.634 173.022 129.595 173.112 129.517L173.22 129.738C173.159 129.793 173.086 129.833 172.999 129.859C172.916 129.885 172.829 129.898 172.74 129.898ZM171.666 127.86V127.605H173.073V127.86H171.666Z" fill="#364140" fill-opacity="0.64"/>
<path d="M40.6562 148.266H170.464C172.057 148.266 173.349 149.557 173.349 151.15C173.349 152.743 172.057 154.035 170.464 154.035H40.6562V148.266Z" fill="#00AC99" fill-opacity="0.04"/>
<path d="M40.6562 148.266H51.8341C53.4273 148.266 54.7188 149.557 54.7188 151.15C54.7188 152.743 53.4273 154.035 51.8341 154.035H40.6562V148.266Z" fill="#00AC99"/>
<path d="M42.0464 162.018C41.7974 162.018 41.5534 161.983 41.3144 161.912C41.0788 161.838 40.8803 161.737 40.7188 161.609L40.9964 161.099C41.1243 161.203 41.2791 161.288 41.4608 161.352C41.6459 161.416 41.8377 161.447 42.0363 161.447C42.2685 161.447 42.4502 161.399 42.5815 161.301C42.7161 161.203 42.7834 161.072 42.7834 160.907C42.7834 160.796 42.7548 160.699 42.6976 160.615C42.6438 160.53 42.5462 160.466 42.4048 160.423C42.2668 160.379 42.0767 160.357 41.8344 160.357H40.9813L41.163 158.434H43.2377V158.984H41.4053L41.7486 158.671L41.6123 160.11L41.269 159.802H41.9808C42.3308 159.802 42.6118 159.849 42.8238 159.943C43.0392 160.034 43.1957 160.162 43.2933 160.327C43.3942 160.488 43.4447 160.673 43.4447 160.882C43.4447 161.087 43.3942 161.276 43.2933 161.447C43.1923 161.619 43.0375 161.757 42.8288 161.861C42.6236 161.966 42.3627 162.018 42.0464 162.018Z" fill="#00AC99"/>
<path d="M44.2687 161.967L46.6816 158.434H47.1763L44.7634 161.967H44.2687ZM44.5614 160.337C44.3965 160.337 44.2501 160.297 44.1223 160.216C43.9944 160.135 43.8951 160.022 43.8244 159.878C43.7537 159.733 43.7184 159.563 43.7184 159.368C43.7184 159.172 43.7537 159.003 43.8244 158.858C43.8951 158.713 43.9944 158.6 44.1223 158.52C44.2501 158.439 44.3965 158.398 44.5614 158.398C44.7331 158.398 44.8812 158.439 45.0057 158.52C45.1336 158.6 45.2328 158.713 45.3035 158.858C45.3742 159.003 45.4095 159.172 45.4095 159.368C45.4095 159.563 45.3742 159.733 45.3035 159.878C45.2328 160.022 45.1336 160.135 45.0057 160.216C44.8812 160.297 44.7331 160.337 44.5614 160.337ZM44.5665 159.984C44.7011 159.984 44.8054 159.931 44.8795 159.827C44.9569 159.719 44.9956 159.566 44.9956 159.368C44.9956 159.169 44.9569 159.018 44.8795 158.913C44.8054 158.806 44.7011 158.752 44.5665 158.752C44.4319 158.752 44.3242 158.806 44.2434 158.913C44.166 159.021 44.1273 159.172 44.1273 159.368C44.1273 159.563 44.166 159.714 44.2434 159.822C44.3242 159.93 44.4319 159.984 44.5665 159.984ZM46.8785 162.003C46.7136 162.003 46.5672 161.962 46.4393 161.882C46.3114 161.801 46.2122 161.688 46.1415 161.543C46.0708 161.399 46.0355 161.229 46.0355 161.034C46.0355 160.838 46.0708 160.668 46.1415 160.524C46.2122 160.379 46.3114 160.266 46.4393 160.185C46.5672 160.105 46.7136 160.064 46.8785 160.064C47.0501 160.064 47.1982 160.105 47.3227 160.185C47.4506 160.266 47.5499 160.379 47.6206 160.524C47.6912 160.668 47.7266 160.838 47.7266 161.034C47.7266 161.229 47.6912 161.399 47.6206 161.543C47.5499 161.688 47.4506 161.801 47.3227 161.882C47.1982 161.962 47.0501 162.003 46.8785 162.003ZM46.8785 161.649C47.0131 161.649 47.1191 161.596 47.1965 161.488C47.2739 161.38 47.3126 161.229 47.3126 161.034C47.3126 160.838 47.2739 160.687 47.1965 160.579C47.1191 160.472 47.0131 160.418 46.8785 160.418C46.7473 160.418 46.6412 160.472 46.5605 160.579C46.4831 160.684 46.4444 160.835 46.4444 161.034C46.4444 161.232 46.4831 161.385 46.5605 161.493C46.6412 161.597 46.7473 161.649 46.8785 161.649Z" fill="#00AC99"/>
<path d="M50.2026 162.807C50.0439 162.544 49.9199 162.241 49.8304 161.898C49.7439 161.552 49.7006 161.18 49.7006 160.782C49.7006 160.384 49.7439 160.012 49.8304 159.666C49.9199 159.316 50.0439 159.014 50.2026 158.757H50.4968C50.3266 159.054 50.2011 159.37 50.1203 159.704C50.0425 160.036 50.0035 160.395 50.0035 160.782C50.0035 161.168 50.0425 161.529 50.1203 161.864C50.2011 162.195 50.3266 162.51 50.4968 162.807H50.2026Z" fill="#00AC99"/>
<path d="M51.4698 161.967V159.068L51.6082 159.216H50.7558V158.939H51.7813V161.967H51.4698Z" fill="#00AC99"/>
<path d="M53.8411 161.967V159.696H54.1483V161.967H53.8411ZM53.9969 159.194C53.9334 159.194 53.8801 159.172 53.8368 159.129C53.7935 159.086 53.7719 159.034 53.7719 158.973C53.7719 158.913 53.7935 158.862 53.8368 158.822C53.8801 158.778 53.9334 158.757 53.9969 158.757C54.0604 158.757 54.1137 158.777 54.157 158.817C54.2003 158.858 54.2219 158.908 54.2219 158.969C54.2219 159.032 54.2003 159.086 54.157 159.129C54.1166 159.172 54.0632 159.194 53.9969 159.194Z" fill="#00AC99"/>
<path d="M56.1628 159.674C56.3474 159.674 56.5089 159.71 56.6474 159.782C56.7887 159.852 56.8983 159.958 56.9762 160.103C57.057 160.247 57.0974 160.428 57.0974 160.648V161.967H56.7902V160.678C56.7902 160.439 56.7296 160.258 56.6084 160.137C56.4902 160.013 56.3229 159.951 56.1065 159.951C55.945 159.951 55.8036 159.984 55.6825 160.051C55.5642 160.114 55.4719 160.208 55.4055 160.332C55.3421 160.453 55.3104 160.6 55.3104 160.773V161.967H55.0031V159.696H55.2974V160.319L55.2498 160.202C55.3219 160.038 55.4373 159.909 55.5959 159.817C55.7546 159.722 55.9435 159.674 56.1628 159.674Z" fill="#00AC99"/>
<path d="M58.4691 161.967L57.4609 159.696H57.7811L58.7071 161.803H58.5556L59.4946 159.696H59.7974L58.7849 161.967H58.4691Z" fill="#00AC99"/>
<path d="M61.1316 161.989C60.8951 161.989 60.6874 161.94 60.5085 161.842C60.3297 161.741 60.1898 161.604 60.0888 161.431C59.9879 161.255 59.9374 161.054 59.9374 160.829C59.9374 160.604 59.985 160.405 60.0802 160.232C60.1783 160.059 60.3109 159.924 60.4783 159.826C60.6484 159.725 60.8388 159.674 61.0494 159.674C61.2629 159.674 61.4518 159.723 61.6162 159.821C61.7835 159.916 61.9148 160.052 62.01 160.228C62.1052 160.401 62.1528 160.602 62.1528 160.829C62.1528 160.844 62.1513 160.86 62.1484 160.877C62.1484 160.891 62.1484 160.907 62.1484 160.925H60.171V160.695H61.984L61.8629 160.786C61.8629 160.622 61.8268 160.476 61.7547 160.349C61.6855 160.219 61.5903 160.118 61.4691 160.046C61.348 159.974 61.2081 159.938 61.0494 159.938C60.8936 159.938 60.7537 159.974 60.6297 160.046C60.5057 160.118 60.409 160.219 60.3398 160.349C60.2706 160.479 60.2359 160.628 60.2359 160.795V160.842C60.2359 161.016 60.2734 161.168 60.3484 161.301C60.4263 161.431 60.5331 161.533 60.6686 161.608C60.8071 161.68 60.9643 161.716 61.1403 161.716C61.2787 161.716 61.4071 161.692 61.5254 161.643C61.6465 161.594 61.7504 161.519 61.8369 161.418L62.01 161.617C61.909 161.738 61.7821 161.83 61.6292 161.894C61.4792 161.957 61.3134 161.989 61.1316 161.989Z" fill="#00AC99"/>
<path d="M63.3882 161.989C63.2007 161.989 63.0233 161.963 62.856 161.911C62.6887 161.856 62.5574 161.789 62.4622 161.708L62.6007 161.466C62.693 161.535 62.8113 161.595 62.9555 161.647C63.0997 161.696 63.2512 161.721 63.4098 161.721C63.6262 161.721 63.7819 161.688 63.8771 161.621C63.9723 161.552 64.0199 161.461 64.0199 161.349C64.0199 161.265 63.9925 161.2 63.9377 161.154C63.8858 161.105 63.8165 161.069 63.73 161.046C63.6435 161.02 63.5468 160.998 63.4401 160.981C63.3334 160.964 63.2266 160.943 63.1199 160.92C63.0161 160.897 62.9209 160.864 62.8343 160.821C62.7478 160.775 62.6771 160.713 62.6223 160.635C62.5704 160.557 62.5444 160.453 62.5444 160.323C62.5444 160.199 62.579 160.088 62.6483 159.99C62.7175 159.892 62.8185 159.816 62.9512 159.761C63.0867 159.703 63.2512 159.674 63.4444 159.674C63.5915 159.674 63.7387 159.694 63.8858 159.735C64.0329 159.772 64.154 159.823 64.2492 159.886L64.1151 160.133C64.0141 160.064 63.906 160.015 63.7906 159.986C63.6752 159.954 63.5598 159.938 63.4444 159.938C63.2396 159.938 63.0882 159.974 62.9901 160.046C62.8949 160.116 62.8473 160.205 62.8473 160.315C62.8473 160.401 62.8733 160.469 62.9252 160.518C62.98 160.567 63.0507 160.606 63.1372 160.635C63.2266 160.661 63.3233 160.682 63.4271 160.7C63.5339 160.717 63.6391 160.739 63.743 160.765C63.8497 160.788 63.9464 160.821 64.0329 160.864C64.1223 160.904 64.193 160.964 64.2449 161.041C64.2997 161.116 64.3271 161.216 64.3271 161.34C64.3271 161.473 64.2896 161.588 64.2146 161.686C64.1425 161.781 64.0358 161.856 63.8944 161.911C63.756 161.963 63.5872 161.989 63.3882 161.989Z" fill="#00AC99"/>
<path d="M65.6091 161.989C65.3956 161.989 65.2312 161.931 65.1158 161.816C65.0005 161.701 64.9428 161.538 64.9428 161.327V159.194H65.25V161.31C65.25 161.442 65.2831 161.545 65.3495 161.617C65.4187 161.689 65.5168 161.725 65.6437 161.725C65.7793 161.725 65.8918 161.686 65.9812 161.608L66.0894 161.829C66.0288 161.884 65.9553 161.924 65.8687 161.95C65.7851 161.976 65.6985 161.989 65.6091 161.989ZM64.536 159.951V159.696H65.9423V159.951H64.536Z" fill="#00AC99"/>
<path d="M67.4943 161.989C67.2751 161.989 67.0775 161.94 66.9015 161.842C66.7285 161.741 66.5914 161.604 66.4905 161.431C66.3895 161.255 66.339 161.054 66.339 160.829C66.339 160.602 66.3895 160.401 66.4905 160.228C66.5914 160.055 66.7285 159.919 66.9015 159.821C67.0746 159.723 67.2722 159.674 67.4943 159.674C67.7193 159.674 67.9184 159.723 68.0914 159.821C68.2674 159.919 68.4044 160.055 68.5025 160.228C68.6035 160.401 68.6539 160.602 68.6539 160.829C68.6539 161.054 68.6035 161.255 68.5025 161.431C68.4044 161.604 68.2674 161.741 68.0914 161.842C67.9155 161.94 67.7164 161.989 67.4943 161.989ZM67.4943 161.716C67.6587 161.716 67.8044 161.68 67.9313 161.608C68.0583 161.533 68.1578 161.429 68.2299 161.297C68.3049 161.161 68.3424 161.005 68.3424 160.829C68.3424 160.651 68.3049 160.495 68.2299 160.362C68.1578 160.229 68.0583 160.127 67.9313 160.055C67.8044 159.98 67.6602 159.942 67.4987 159.942C67.3371 159.942 67.1929 159.98 67.066 160.055C66.939 160.127 66.8381 160.229 66.7631 160.362C66.6881 160.495 66.6506 160.651 66.6506 160.829C66.6506 161.005 66.6881 161.161 66.7631 161.297C66.8381 161.429 66.939 161.533 67.066 161.608C67.1929 161.68 67.3357 161.716 67.4943 161.716Z" fill="#00AC99"/>
<path d="M69.2811 161.967V159.696H69.5754V160.315L69.5451 160.206C69.6085 160.033 69.7153 159.902 69.8653 159.813C70.0153 159.72 70.2013 159.674 70.4235 159.674V159.973C70.4119 159.973 70.4004 159.973 70.3888 159.973C70.3773 159.97 70.3658 159.968 70.3542 159.968C70.1148 159.968 69.9273 160.042 69.7917 160.189C69.6561 160.333 69.5884 160.54 69.5884 160.808V161.967H69.2811Z" fill="#00AC99"/>
<path d="M71.6195 161.989C71.432 161.989 71.2546 161.963 71.0873 161.911C70.92 161.856 70.7887 161.789 70.6935 161.708L70.832 161.466C70.9243 161.535 71.0426 161.595 71.1868 161.647C71.331 161.696 71.4825 161.721 71.6411 161.721C71.8575 161.721 72.0132 161.688 72.1084 161.621C72.2036 161.552 72.2512 161.461 72.2512 161.349C72.2512 161.265 72.2238 161.2 72.169 161.154C72.1171 161.105 72.0478 161.069 71.9613 161.046C71.8748 161.02 71.7781 160.998 71.6714 160.981C71.5647 160.964 71.4579 160.943 71.3512 160.92C71.2474 160.897 71.1522 160.864 71.0656 160.821C70.9791 160.775 70.9084 160.713 70.8536 160.635C70.8017 160.557 70.7757 160.453 70.7757 160.323C70.7757 160.199 70.8103 160.088 70.8796 159.99C70.9488 159.892 71.0498 159.816 71.1825 159.761C71.318 159.703 71.4825 159.674 71.6757 159.674C71.8228 159.674 71.97 159.694 72.1171 159.735C72.2642 159.772 72.3853 159.823 72.4805 159.886L72.3464 160.133C72.2454 160.064 72.1373 160.015 72.0219 159.986C71.9065 159.954 71.7911 159.938 71.6757 159.938C71.4709 159.938 71.3195 159.974 71.2214 160.046C71.1262 160.116 71.0786 160.205 71.0786 160.315C71.0786 160.401 71.1046 160.469 71.1565 160.518C71.2113 160.567 71.282 160.606 71.3685 160.635C71.4579 160.661 71.5546 160.682 71.6584 160.7C71.7651 160.717 71.8704 160.739 71.9743 160.765C72.081 160.788 72.1776 160.821 72.2642 160.864C72.3536 160.904 72.4243 160.964 72.4762 161.041C72.531 161.116 72.5584 161.216 72.5584 161.34C72.5584 161.473 72.5209 161.588 72.4459 161.686C72.3738 161.781 72.2671 161.856 72.1257 161.911C71.9873 161.963 71.8185 161.989 71.6195 161.989Z" fill="#00AC99"/>
<path d="M73.1611 162.807H72.8668C73.0399 162.51 73.1654 162.195 73.2433 161.864C73.3241 161.529 73.3644 161.168 73.3644 160.782C73.3644 160.395 73.3241 160.036 73.2433 159.704C73.1654 159.37 73.0399 159.054 72.8668 158.757H73.1611C73.3255 159.014 73.451 159.316 73.5375 159.666C73.6241 160.012 73.6673 160.384 73.6673 160.782C73.6673 161.18 73.6241 161.552 73.5375 161.898C73.451 162.241 73.3255 162.544 73.1611 162.807Z" fill="#00AC99"/>
<path d="M135.527 158.383C135.85 158.383 136.124 158.452 136.35 158.59C136.578 158.724 136.753 158.921 136.875 159.18C136.996 159.44 137.056 159.759 137.056 160.14C137.056 160.543 136.982 160.885 136.834 161.164C136.689 161.444 136.487 161.656 136.228 161.8C135.969 161.945 135.668 162.017 135.325 162.017C135.146 162.017 134.976 161.999 134.815 161.962C134.653 161.925 134.514 161.868 134.396 161.79L134.638 161.296C134.736 161.359 134.842 161.405 134.956 161.432C135.071 161.455 135.188 161.467 135.31 161.467C135.643 161.467 135.907 161.365 136.102 161.159C136.297 160.954 136.395 160.651 136.395 160.251C136.395 160.187 136.393 160.113 136.39 160.028C136.387 159.941 136.375 159.853 136.355 159.766L136.556 159.988C136.499 160.126 136.417 160.242 136.309 160.336C136.201 160.427 136.075 160.496 135.931 160.543C135.786 160.591 135.626 160.614 135.451 160.614C135.222 160.614 135.015 160.57 134.83 160.483C134.648 160.392 134.504 160.266 134.396 160.104C134.288 159.939 134.234 159.747 134.234 159.529C134.234 159.293 134.292 159.091 134.406 158.923C134.52 158.751 134.675 158.618 134.87 158.524C135.069 158.43 135.288 158.383 135.527 158.383ZM135.562 158.898C135.427 158.898 135.308 158.923 135.204 158.973C135.099 159.021 135.017 159.09 134.956 159.18C134.899 159.268 134.87 159.374 134.87 159.498C134.87 159.684 134.934 159.83 135.062 159.938C135.19 160.045 135.362 160.099 135.577 160.099C135.719 160.099 135.843 160.074 135.951 160.023C136.058 159.97 136.143 159.897 136.203 159.806C136.264 159.712 136.294 159.608 136.294 159.493C136.294 159.382 136.265 159.283 136.208 159.196C136.151 159.105 136.069 159.032 135.961 158.978C135.853 158.925 135.72 158.898 135.562 158.898Z" fill="#00AC99"/>
<path d="M138.671 162.017C138.422 162.017 138.178 161.982 137.939 161.911C137.704 161.837 137.505 161.736 137.344 161.609L137.621 161.099C137.749 161.203 137.904 161.287 138.086 161.351C138.271 161.415 138.463 161.447 138.661 161.447C138.894 161.447 139.075 161.398 139.206 161.301C139.341 161.203 139.408 161.072 139.408 160.907C139.408 160.796 139.38 160.698 139.323 160.614C139.269 160.53 139.171 160.466 139.03 160.422C138.892 160.378 138.702 160.357 138.459 160.357H137.606L137.788 158.433H139.863V158.984H138.03L138.374 158.671L138.237 160.109L137.894 159.801H138.606C138.956 159.801 139.237 159.848 139.449 159.943C139.664 160.034 139.821 160.161 139.918 160.326C140.019 160.488 140.07 160.673 140.07 160.882C140.07 161.087 140.019 161.275 139.918 161.447C139.817 161.619 139.663 161.757 139.454 161.861C139.249 161.965 138.988 162.017 138.671 162.017Z" fill="#00AC99"/>
<path d="M140.473 162.729L140.766 161.614L140.852 161.987C140.734 161.987 140.635 161.952 140.554 161.881C140.477 161.807 140.438 161.708 140.438 161.583C140.438 161.455 140.477 161.354 140.554 161.28C140.635 161.203 140.733 161.164 140.847 161.164C140.965 161.164 141.062 161.203 141.14 161.28C141.217 161.358 141.256 161.459 141.256 161.583C141.256 161.617 141.253 161.654 141.246 161.694C141.239 161.731 141.227 161.775 141.211 161.826C141.197 161.876 141.173 161.94 141.14 162.017L140.882 162.729H140.473Z" fill="#00AC99"/>
<path d="M143.096 162.017C142.816 162.017 142.564 161.947 142.338 161.805C142.116 161.664 141.941 161.459 141.813 161.19C141.685 160.917 141.622 160.587 141.622 160.2C141.622 159.813 141.685 159.485 141.813 159.216C141.941 158.943 142.116 158.736 142.338 158.595C142.564 158.453 142.816 158.383 143.096 158.383C143.378 158.383 143.631 158.453 143.853 158.595C144.075 158.736 144.25 158.943 144.378 159.216C144.509 159.485 144.575 159.813 144.575 160.2C144.575 160.587 144.509 160.917 144.378 161.19C144.25 161.459 144.075 161.664 143.853 161.805C143.631 161.947 143.378 162.017 143.096 162.017ZM143.096 161.447C143.26 161.447 143.403 161.403 143.525 161.316C143.646 161.225 143.74 161.087 143.807 160.902C143.878 160.717 143.913 160.483 143.913 160.2C143.913 159.914 143.878 159.68 143.807 159.498C143.74 159.313 143.646 159.177 143.525 159.09C143.403 158.999 143.26 158.953 143.096 158.953C142.937 158.953 142.796 158.999 142.672 159.09C142.55 159.177 142.454 159.313 142.384 159.498C142.316 159.68 142.283 159.914 142.283 160.2C142.283 160.483 142.316 160.717 142.384 160.902C142.454 161.087 142.55 161.225 142.672 161.316C142.796 161.403 142.937 161.447 143.096 161.447Z" fill="#00AC99"/>
<path d="M146.492 162.017C146.213 162.017 145.96 161.947 145.735 161.805C145.513 161.664 145.338 161.459 145.21 161.19C145.082 160.917 145.018 160.587 145.018 160.2C145.018 159.813 145.082 159.485 145.21 159.216C145.338 158.943 145.513 158.736 145.735 158.595C145.96 158.453 146.213 158.383 146.492 158.383C146.775 158.383 147.027 158.453 147.249 158.595C147.471 158.736 147.646 158.943 147.774 159.216C147.906 159.485 147.971 159.813 147.971 160.2C147.971 160.587 147.906 160.917 147.774 161.19C147.646 161.459 147.471 161.664 147.249 161.805C147.027 161.947 146.775 162.017 146.492 162.017ZM146.492 161.447C146.657 161.447 146.8 161.403 146.921 161.316C147.042 161.225 147.137 161.087 147.204 160.902C147.275 160.717 147.31 160.483 147.31 160.2C147.31 159.914 147.275 159.68 147.204 159.498C147.137 159.313 147.042 159.177 146.921 159.09C146.8 158.999 146.657 158.953 146.492 158.953C146.334 158.953 146.193 158.999 146.068 159.09C145.947 159.177 145.851 159.313 145.78 159.498C145.713 159.68 145.679 159.914 145.679 160.2C145.679 160.483 145.713 160.717 145.78 160.902C145.851 161.087 145.947 161.225 146.068 161.316C146.193 161.403 146.334 161.447 146.492 161.447Z" fill="#00AC99"/>
<path d="M149.889 162.017C149.609 162.017 149.357 161.947 149.132 161.805C148.909 161.664 148.734 161.459 148.607 161.19C148.479 160.917 148.415 160.587 148.415 160.2C148.415 159.813 148.479 159.485 148.607 159.216C148.734 158.943 148.909 158.736 149.132 158.595C149.357 158.453 149.609 158.383 149.889 158.383C150.171 158.383 150.424 158.453 150.646 158.595C150.868 158.736 151.043 158.943 151.171 159.216C151.302 159.485 151.368 159.813 151.368 160.2C151.368 160.587 151.302 160.917 151.171 161.19C151.043 161.459 150.868 161.664 150.646 161.805C150.424 161.947 150.171 162.017 149.889 162.017ZM149.889 161.447C150.054 161.447 150.197 161.403 150.318 161.316C150.439 161.225 150.533 161.087 150.601 160.902C150.671 160.717 150.707 160.483 150.707 160.2C150.707 159.914 150.671 159.68 150.601 159.498C150.533 159.313 150.439 159.177 150.318 159.09C150.197 158.999 150.054 158.953 149.889 158.953C149.731 158.953 149.589 158.999 149.465 159.09C149.344 159.177 149.248 159.313 149.177 159.498C149.11 159.68 149.076 159.914 149.076 160.2C149.076 160.483 149.11 160.717 149.177 160.902C149.248 161.087 149.344 161.225 149.465 161.316C149.589 161.403 149.731 161.447 149.889 161.447Z" fill="#00AC99"/>
<path d="M152.146 162.002C152.032 162.002 151.934 161.964 151.853 161.886C151.772 161.805 151.732 161.704 151.732 161.583C151.732 161.455 151.772 161.354 151.853 161.28C151.934 161.203 152.032 161.164 152.146 161.164C152.26 161.164 152.358 161.203 152.439 161.28C152.519 161.354 152.56 161.455 152.56 161.583C152.56 161.704 152.519 161.805 152.439 161.886C152.358 161.964 152.26 162.002 152.146 162.002Z" fill="#00AC99"/>
<path d="M154.4 162.017C154.12 162.017 153.868 161.947 153.642 161.805C153.42 161.664 153.245 161.459 153.117 161.19C152.989 160.917 152.925 160.587 152.925 160.2C152.925 159.813 152.989 159.485 153.117 159.216C153.245 158.943 153.42 158.736 153.642 158.595C153.868 158.453 154.12 158.383 154.4 158.383C154.682 158.383 154.935 158.453 155.157 158.595C155.379 158.736 155.554 158.943 155.682 159.216C155.813 159.485 155.879 159.813 155.879 160.2C155.879 160.587 155.813 160.917 155.682 161.19C155.554 161.459 155.379 161.664 155.157 161.805C154.935 161.947 154.682 162.017 154.4 162.017ZM154.4 161.447C154.564 161.447 154.707 161.403 154.829 161.316C154.95 161.225 155.044 161.087 155.111 160.902C155.182 160.717 155.217 160.483 155.217 160.2C155.217 159.914 155.182 159.68 155.111 159.498C155.044 159.313 154.95 159.177 154.829 159.09C154.707 158.999 154.564 158.953 154.4 158.953C154.241 158.953 154.1 158.999 153.975 159.09C153.854 159.177 153.758 159.313 153.688 159.498C153.62 159.68 153.587 159.914 153.587 160.2C153.587 160.483 153.62 160.717 153.688 160.902C153.758 161.087 153.854 161.225 153.975 161.316C154.1 161.403 154.241 161.447 154.4 161.447Z" fill="#00AC99"/>
<path d="M157.796 162.017C157.517 162.017 157.264 161.947 157.039 161.805C156.817 161.664 156.642 161.459 156.514 161.19C156.386 160.917 156.322 160.587 156.322 160.2C156.322 159.813 156.386 159.485 156.514 159.216C156.642 158.943 156.817 158.736 157.039 158.595C157.264 158.453 157.517 158.383 157.796 158.383C158.079 158.383 158.331 158.453 158.553 158.595C158.775 158.736 158.95 158.943 159.078 159.216C159.21 159.485 159.275 159.813 159.275 160.2C159.275 160.587 159.21 160.917 159.078 161.19C158.95 161.459 158.775 161.664 158.553 161.805C158.331 161.947 158.079 162.017 157.796 162.017ZM157.796 161.447C157.961 161.447 158.104 161.403 158.225 161.316C158.346 161.225 158.441 161.087 158.508 160.902C158.579 160.717 158.614 160.483 158.614 160.2C158.614 159.914 158.579 159.68 158.508 159.498C158.441 159.313 158.346 159.177 158.225 159.09C158.104 158.999 157.961 158.953 157.796 158.953C157.638 158.953 157.497 158.999 157.372 159.09C157.251 159.177 157.155 159.313 157.084 159.498C157.017 159.68 156.983 159.914 156.983 160.2C156.983 160.483 157.017 160.717 157.084 160.902C157.155 161.087 157.251 161.225 157.372 161.316C157.497 161.403 157.638 161.447 157.796 161.447Z" fill="#00AC99"/>
<path d="M161.043 160.725V160.372H163.759V160.725H161.043ZM161.043 160.028V159.675H163.759V160.028H161.043ZM163.436 162.017C163.163 162.017 162.911 161.974 162.679 161.886C162.45 161.795 162.251 161.669 162.083 161.508C161.915 161.343 161.784 161.149 161.689 160.927C161.595 160.705 161.548 160.463 161.548 160.2C161.548 159.938 161.595 159.695 161.689 159.473C161.784 159.251 161.915 159.059 162.083 158.898C162.251 158.733 162.45 158.607 162.679 158.519C162.911 158.428 163.163 158.383 163.436 158.383C163.725 158.383 163.99 158.433 164.228 158.534C164.471 158.632 164.673 158.778 164.834 158.973L164.415 159.372C164.287 159.234 164.144 159.132 163.986 159.064C163.828 158.994 163.656 158.958 163.471 158.958C163.286 158.958 163.116 158.989 162.961 159.049C162.81 159.11 162.677 159.196 162.563 159.307C162.452 159.418 162.364 159.549 162.3 159.7C162.236 159.852 162.204 160.018 162.204 160.2C162.204 160.382 162.236 160.548 162.3 160.7C162.364 160.851 162.452 160.983 162.563 161.094C162.677 161.205 162.81 161.291 162.961 161.351C163.116 161.412 163.286 161.442 163.471 161.442C163.656 161.442 163.828 161.408 163.986 161.341C164.144 161.27 164.287 161.164 164.415 161.023L164.834 161.427C164.673 161.619 164.471 161.765 164.228 161.866C163.99 161.967 163.725 162.017 163.436 162.017Z" fill="#00AC99"/>
<path d="M166.782 161.967V158.756H167.089V161.967H166.782Z" fill="#00AC99"/>
<path d="M168.909 161.989C168.673 161.989 168.465 161.94 168.286 161.841C168.107 161.741 167.967 161.603 167.866 161.43C167.765 161.254 167.715 161.054 167.715 160.829C167.715 160.604 167.763 160.405 167.858 160.232C167.956 160.059 168.088 159.923 168.256 159.825C168.426 159.724 168.616 159.674 168.827 159.674C169.04 159.674 169.229 159.723 169.394 159.821C169.561 159.916 169.692 160.052 169.788 160.228C169.883 160.401 169.93 160.601 169.93 160.829C169.93 160.843 169.929 160.859 169.926 160.877C169.926 160.891 169.926 160.907 169.926 160.924H167.949V160.695H169.762L169.64 160.786C169.64 160.621 169.604 160.476 169.532 160.349C169.463 160.219 169.368 160.118 169.247 160.046C169.125 159.974 168.986 159.938 168.827 159.938C168.671 159.938 168.531 159.974 168.407 160.046C168.283 160.118 168.187 160.219 168.117 160.349C168.048 160.478 168.013 160.627 168.013 160.794V160.842C168.013 161.015 168.051 161.168 168.126 161.301C168.204 161.43 168.311 161.533 168.446 161.608C168.585 161.68 168.742 161.716 168.918 161.716C169.056 161.716 169.185 161.691 169.303 161.642C169.424 161.593 169.528 161.518 169.614 161.417L169.788 161.616C169.687 161.738 169.56 161.83 169.407 161.893C169.257 161.957 169.091 161.989 168.909 161.989Z" fill="#00AC99"/>
<path d="M170.608 161.967V159.41C170.608 159.208 170.667 159.045 170.785 158.921C170.903 158.797 171.073 158.735 171.296 158.735C171.382 158.735 171.466 158.746 171.546 158.769C171.627 158.792 171.695 158.828 171.75 158.878L171.646 159.107C171.603 159.069 171.552 159.042 171.495 159.025C171.437 159.004 171.375 158.994 171.308 158.994C171.179 158.994 171.079 159.03 171.01 159.103C170.941 159.175 170.906 159.281 170.906 159.423V159.769L170.915 159.912V161.967H170.608ZM170.201 159.951V159.695H171.607V159.951H170.201Z" fill="#00AC99"/>
<path d="M172.74 161.989C172.527 161.989 172.362 161.931 172.247 161.816C172.131 161.7 172.074 161.537 172.074 161.327V159.193H172.381V161.309C172.381 161.442 172.414 161.544 172.481 161.616C172.55 161.689 172.648 161.725 172.775 161.725C172.91 161.725 173.023 161.686 173.112 161.608L173.22 161.828C173.16 161.883 173.086 161.924 173 161.95C172.916 161.976 172.83 161.989 172.74 161.989ZM171.667 159.951V159.695H173.073V159.951H171.667Z" fill="#00AC99"/>
<path d="M41.2578 117.976V112.928H43.7242C44.3588 112.928 44.8347 113.048 45.152 113.289C45.4742 113.529 45.6352 113.846 45.6352 114.241C45.6352 114.505 45.5703 114.736 45.4405 114.933C45.3107 115.125 45.1328 115.274 44.9069 115.38C44.6809 115.486 44.4213 115.539 44.128 115.539L44.265 115.243C44.5823 115.243 44.8636 115.296 45.1088 115.402C45.354 115.503 45.5439 115.654 45.6785 115.856C45.8179 116.058 45.8876 116.306 45.8876 116.599C45.8876 117.032 45.7169 117.37 45.3756 117.616C45.0343 117.856 44.5319 117.976 43.8684 117.976H41.2578ZM42.4189 117.096H43.7819C44.0847 117.096 44.3131 117.048 44.4669 116.952C44.6256 116.851 44.7049 116.693 44.7049 116.476C44.7049 116.265 44.6256 116.108 44.4669 116.008C44.3131 115.902 44.0847 115.849 43.7819 115.849H42.3323V114.998H43.5799C43.8636 114.998 44.0799 114.95 44.229 114.854C44.3828 114.753 44.4597 114.601 44.4597 114.399C44.4597 114.202 44.3828 114.056 44.229 113.959C44.0799 113.858 43.8636 113.808 43.5799 113.808H42.4189V117.096Z" fill="#364140"/>
<path d="M46.6928 117.976V114.096H47.8178V117.976H46.6928ZM47.2553 113.556C47.0485 113.556 46.8803 113.495 46.7505 113.375C46.6207 113.255 46.5558 113.106 46.5558 112.928C46.5558 112.75 46.6207 112.601 46.7505 112.481C46.8803 112.361 47.0485 112.301 47.2553 112.301C47.462 112.301 47.6303 112.358 47.7601 112.474C47.8899 112.584 47.9548 112.729 47.9548 112.907C47.9548 113.094 47.8899 113.25 47.7601 113.375C47.6351 113.495 47.4668 113.556 47.2553 113.556Z" fill="#364140"/>
<path d="M50.4484 118.034C49.9917 118.034 49.6359 117.919 49.3811 117.688C49.1263 117.452 48.9989 117.104 48.9989 116.642V113.238H50.1239V116.628C50.1239 116.791 50.1672 116.919 50.2537 117.01C50.3402 117.096 50.458 117.14 50.6071 117.14C50.785 117.14 50.9364 117.092 51.0614 116.995L51.3643 117.789C51.2489 117.87 51.1095 117.933 50.946 117.976C50.7874 118.015 50.6215 118.034 50.4484 118.034ZM48.4003 115.048V114.183H51.0902V115.048H48.4003Z" fill="#364140"/>
<path d="M53.7511 118.034C53.3328 118.034 52.9602 117.95 52.6333 117.782C52.3064 117.608 52.0491 117.37 51.8616 117.068C51.679 116.765 51.5876 116.421 51.5876 116.036C51.5876 115.647 51.679 115.303 51.8616 115.005C52.0491 114.702 52.3064 114.467 52.6333 114.298C52.9602 114.125 53.3328 114.039 53.7511 114.039C54.1597 114.039 54.5155 114.125 54.8184 114.298C55.1213 114.467 55.3448 114.709 55.4891 115.027L54.6165 115.495C54.5155 115.313 54.3881 115.178 54.2342 115.092C54.0852 115.005 53.9217 114.962 53.7439 114.962C53.5516 114.962 53.3785 115.005 53.2246 115.092C53.0708 115.178 52.9482 115.301 52.8568 115.459C52.7703 115.618 52.727 115.81 52.727 116.036C52.727 116.262 52.7703 116.455 52.8568 116.613C52.9482 116.772 53.0708 116.895 53.2246 116.981C53.3785 117.068 53.5516 117.111 53.7439 117.111C53.9217 117.111 54.0852 117.07 54.2342 116.988C54.3881 116.902 54.5155 116.765 54.6165 116.577L55.4891 117.053C55.3448 117.366 55.1213 117.608 54.8184 117.782C54.5155 117.95 54.1597 118.034 53.7511 118.034Z" fill="#364140"/>
<path d="M57.9337 118.034C57.5202 118.034 57.1524 117.947 56.8303 117.774C56.513 117.601 56.2606 117.366 56.0731 117.068C55.8904 116.765 55.799 116.421 55.799 116.036C55.799 115.647 55.8904 115.303 56.0731 115.005C56.2606 114.702 56.513 114.467 56.8303 114.298C57.1524 114.125 57.5202 114.039 57.9337 114.039C58.3423 114.039 58.7077 114.125 59.0298 114.298C59.3519 114.467 59.6043 114.7 59.787 114.998C59.9697 115.296 60.0611 115.642 60.0611 116.036C60.0611 116.421 59.9697 116.765 59.787 117.068C59.6043 117.366 59.3519 117.601 59.0298 117.774C58.7077 117.947 58.3423 118.034 57.9337 118.034ZM57.9337 117.111C58.1212 117.111 58.2894 117.068 58.4385 116.981C58.5875 116.895 58.7053 116.772 58.7918 116.613C58.8784 116.45 58.9216 116.258 58.9216 116.036C58.9216 115.81 58.8784 115.618 58.7918 115.459C58.7053 115.301 58.5875 115.178 58.4385 115.092C58.2894 115.005 58.1212 114.962 57.9337 114.962C57.7462 114.962 57.5779 115.005 57.4288 115.092C57.2798 115.178 57.1596 115.301 57.0683 115.459C56.9817 115.618 56.9385 115.81 56.9385 116.036C56.9385 116.258 56.9817 116.45 57.0683 116.613C57.1596 116.772 57.2798 116.895 57.4288 116.981C57.5779 117.068 57.7462 117.111 57.9337 117.111Z" fill="#364140"/>
<path d="M60.813 117.976V114.096H61.938V117.976H60.813ZM61.3755 113.556C61.1688 113.556 61.0005 113.495 60.8707 113.375C60.7409 113.255 60.676 113.106 60.676 112.928C60.676 112.75 60.7409 112.601 60.8707 112.481C61.0005 112.361 61.1688 112.301 61.3755 112.301C61.5823 112.301 61.7505 112.358 61.8803 112.474C62.0101 112.584 62.075 112.729 62.075 112.907C62.075 113.094 62.0101 113.25 61.8803 113.375C61.7553 113.495 61.5871 113.556 61.3755 113.556Z" fill="#364140"/>
<path d="M65.3403 114.039C65.648 114.039 65.922 114.101 66.1624 114.226C66.4076 114.346 66.5999 114.534 66.7393 114.789C66.8788 115.039 66.9485 115.361 66.9485 115.755V117.976H65.8235V115.928C65.8235 115.616 65.7538 115.385 65.6143 115.236C65.4797 115.087 65.2874 115.012 65.0374 115.012C64.8595 115.012 64.6985 115.051 64.5542 115.128C64.4148 115.2 64.3042 115.313 64.2225 115.467C64.1456 115.62 64.1071 115.818 64.1071 116.058V117.976H62.9821V114.096H64.0566V115.171L63.8547 114.846C63.9941 114.587 64.1937 114.387 64.4533 114.248C64.7129 114.108 65.0086 114.039 65.3403 114.039Z" fill="#364140"/>
<path d="M70.9192 119.375C70.6307 118.938 70.4072 118.433 70.2485 117.861C70.0947 117.284 70.0178 116.664 70.0178 116C70.0178 115.337 70.0947 114.717 70.2485 114.14C70.4072 113.558 70.6307 113.053 70.9192 112.625H71.9937C71.6908 113.169 71.4697 113.717 71.3303 114.27C71.1908 114.818 71.1211 115.395 71.1211 116C71.1211 116.606 71.1908 117.185 71.3303 117.738C71.4697 118.286 71.6908 118.832 71.9937 119.375H70.9192Z" fill="#364140"/>
<path d="M72.6674 117.976V112.928H75.1338C75.7684 112.928 76.2444 113.048 76.5617 113.289C76.8838 113.529 77.0448 113.846 77.0448 114.241C77.0448 114.505 76.9799 114.736 76.8501 114.933C76.7203 115.125 76.5424 115.274 76.3165 115.38C76.0905 115.486 75.8309 115.539 75.5376 115.539L75.6747 115.243C75.992 115.243 76.2732 115.296 76.5184 115.402C76.7636 115.503 76.9535 115.654 77.0881 115.856C77.2275 116.058 77.2972 116.306 77.2972 116.599C77.2972 117.032 77.1266 117.37 76.7852 117.616C76.4439 117.856 75.9415 117.976 75.278 117.976H72.6674ZM73.8285 117.096H75.1915C75.4944 117.096 75.7227 117.048 75.8766 116.952C76.0352 116.851 76.1146 116.693 76.1146 116.476C76.1146 116.265 76.0352 116.108 75.8766 116.008C75.7227 115.902 75.4944 115.849 75.1915 115.849H73.742V114.998H74.9896C75.2732 114.998 75.4896 114.95 75.6386 114.854C75.7924 114.753 75.8694 114.601 75.8694 114.399C75.8694 114.202 75.7924 114.056 75.6386 113.959C75.4896 113.858 75.2732 113.808 74.9896 113.808H73.8285V117.096Z" fill="#364140"/>
<path d="M79.157 117.976V113.88H77.5416V112.928H81.9406V113.88H80.3253V117.976H79.157Z" fill="#364140"/>
<path d="M84.9147 118.063C84.5252 118.063 84.1623 118 83.8257 117.875C83.494 117.745 83.2055 117.563 82.9603 117.327C82.7151 117.092 82.5228 116.815 82.3834 116.498C82.2488 116.181 82.1815 115.832 82.1815 115.452C82.1815 115.072 82.2488 114.724 82.3834 114.407C82.5228 114.089 82.7151 113.813 82.9603 113.577C83.2103 113.342 83.5012 113.161 83.8329 113.036C84.1647 112.907 84.5276 112.842 84.9219 112.842C85.3594 112.842 85.7536 112.919 86.1046 113.072C86.4603 113.221 86.7584 113.443 86.9988 113.736L86.2488 114.428C86.0757 114.231 85.8834 114.084 85.6719 113.988C85.4603 113.887 85.2296 113.837 84.9796 113.837C84.744 113.837 84.5276 113.875 84.3305 113.952C84.1334 114.029 83.9627 114.14 83.8185 114.284C83.6743 114.428 83.5613 114.599 83.4796 114.796C83.4026 114.993 83.3642 115.212 83.3642 115.452C83.3642 115.693 83.4026 115.911 83.4796 116.108C83.5613 116.306 83.6743 116.476 83.8185 116.62C83.9627 116.765 84.1334 116.875 84.3305 116.952C84.5276 117.029 84.744 117.068 84.9796 117.068C85.2296 117.068 85.4603 117.02 85.6719 116.923C85.8834 116.822 86.0757 116.671 86.2488 116.469L86.9988 117.161C86.7584 117.455 86.4603 117.678 86.1046 117.832C85.7536 117.986 85.357 118.063 84.9147 118.063Z" fill="#364140"/>
<path d="M88.3358 119.375H87.2613C87.5738 118.832 87.7973 118.286 87.932 117.738C88.0714 117.185 88.1411 116.606 88.1411 116C88.1411 115.395 88.0714 114.818 87.932 114.27C87.7973 113.717 87.5738 113.169 87.2613 112.625H88.3358C88.6339 113.053 88.8598 113.558 89.0137 114.14C89.1675 114.717 89.2445 115.337 89.2445 116C89.2445 116.664 89.1675 117.284 89.0137 117.861C88.8598 118.433 88.6339 118.938 88.3358 119.375Z" fill="#364140"/>
<path d="M40.6562 22.4235C40.6562 19.7039 40.6562 18.3441 41.5011 17.4992C42.346 16.6543 43.7058 16.6543 46.4255 16.6543H167.579C170.299 16.6543 171.659 16.6543 172.504 17.4992C173.349 18.3441 173.349 19.7039 173.349 22.4235V99.587C173.349 102.307 173.349 103.666 172.504 104.511C171.659 105.356 170.299 105.356 167.579 105.356H46.4255C43.7058 105.356 42.346 105.356 41.5011 104.511C40.6562 103.666 40.6562 102.307 40.6562 99.587V22.4235Z" fill="#EFF0F0"/>
<path d="M97.9042 47.58C98.8311 47.8328 99.7581 48.0013 100.685 48.2541C101.612 48.5069 102.539 48.6754 103.466 48.9282C103.719 49.0125 103.803 48.9282 103.887 48.6754C104.224 47.2429 104.561 45.8947 104.898 44.4621C104.983 44.2093 105.067 44.1251 105.32 44.2093C106.162 44.4621 106.921 44.6307 107.763 44.7992C108.016 44.8835 108.016 44.9677 107.932 45.1363C107.595 46.4845 107.258 47.9171 106.921 49.2653C106.921 49.3496 106.921 49.4338 106.836 49.6024C107.511 49.7709 108.269 49.9394 108.943 50.108C109.027 50.108 109.112 49.9394 109.196 49.8552C109.449 48.7597 109.701 47.7485 110.039 46.6531C110.123 46.316 110.207 45.9789 110.291 45.6419C110.291 45.4733 110.376 45.3891 110.544 45.4733C111.387 45.7261 112.229 45.8947 113.156 46.1475C113.241 46.1475 113.241 46.2317 113.325 46.2317C113.072 47.3272 112.819 48.3384 112.567 49.3496C112.482 49.7709 112.398 50.1922 112.229 50.6136C112.145 50.8664 112.229 50.9506 112.482 51.0349C113.409 51.4562 114.336 51.8776 115.263 52.2989C116.106 52.8045 116.864 53.4786 117.454 54.3213C118.212 55.5853 118.297 56.9335 117.96 58.2818C117.707 59.2087 117.37 60.0514 116.696 60.7255C116.19 61.2311 115.516 61.5682 114.842 61.821C114.757 61.821 114.673 61.9053 114.505 61.9053C114.842 62.1581 115.179 62.3266 115.516 62.5794C116.527 63.3378 117.201 64.2647 117.538 65.4444C117.707 66.3714 117.623 67.3826 117.37 68.3095C117.033 69.4892 116.611 70.5004 115.853 71.4273C114.926 72.5228 113.746 73.1127 112.398 73.2812C110.628 73.534 108.943 73.3655 107.258 73.1127C107.005 73.0284 106.836 73.1127 106.752 73.3655C106.415 74.7137 106.078 76.1463 105.741 77.4945C105.657 77.8316 105.657 77.9158 105.235 77.7473C104.477 77.5788 103.634 77.326 102.876 77.1575C102.623 77.0732 102.623 76.9889 102.707 76.8204C103.044 75.3879 103.382 73.9553 103.803 72.6071C103.803 72.4385 103.887 72.3543 103.719 72.27C103.044 72.1015 102.37 71.9329 101.612 71.7644C101.443 72.5228 101.191 73.2812 101.022 74.0396C100.854 74.798 100.601 75.5564 100.432 76.3148C100.348 76.4833 100.348 76.5676 100.095 76.4833C99.2525 76.2305 98.4098 76.062 97.5671 75.8935C97.3143 75.8092 97.3143 75.7249 97.3986 75.5564C97.7357 74.1239 98.0727 72.6913 98.4941 71.3431C98.4941 71.2588 98.5783 71.1745 98.5783 71.006C96.6402 70.5004 94.7021 69.9948 92.6797 69.4892C92.8482 69.1522 92.9325 68.8994 93.101 68.5623C93.4381 67.8039 93.7751 67.0455 94.0279 66.3714C94.1122 66.1186 94.1965 66.1186 94.4493 66.1186C95.0391 66.2871 95.7133 66.4556 96.3031 66.5399C96.9773 66.7084 97.4829 66.3714 97.5671 65.7815C98.6626 61.4839 99.7581 57.1863 100.769 52.8045C100.938 52.1304 100.516 51.372 99.7581 51.1192C98.9997 50.8664 98.2413 50.6978 97.5671 50.5293C97.3986 50.5293 97.3143 50.445 97.3986 50.2765C97.6514 49.3496 97.9042 48.3384 98.157 47.4115C97.8199 47.6643 97.8199 47.6643 97.9042 47.58ZM102.202 68.3938C102.286 68.3938 102.37 68.478 102.37 68.478C103.719 68.8151 105.151 69.2364 106.584 69.3207C107.595 69.405 108.522 69.405 109.449 69.0679C111.05 68.5623 111.724 66.4556 110.797 65.1074C110.376 64.4332 109.701 64.0119 109.027 63.5906C107.511 62.7479 105.741 62.4109 104.056 62.0738C103.803 61.9895 103.803 62.0738 103.719 62.3266C103.55 63.1692 103.297 63.9276 103.129 64.7703C102.792 65.95 102.539 67.1298 102.202 68.3938ZM109.28 59.7986C109.449 59.7986 109.87 59.7143 110.207 59.6301C111.808 59.293 112.651 57.4391 111.808 56.0066C111.387 55.2482 110.628 54.7426 109.87 54.4056C108.69 53.9 107.511 53.6472 106.247 53.3101C105.994 53.2258 105.909 53.3101 105.825 53.5629C105.404 55.3325 104.983 57.0178 104.477 58.7874C104.393 58.9559 104.477 59.0402 104.645 59.1245C104.983 59.2087 105.235 59.293 105.572 59.3773C106.836 59.5458 107.932 59.7986 109.28 59.7986Z" fill="#F5B300"/>
</g>
<defs>
<filter id="filter0_d_198_38800" x="0" y="0" width="214" height="260.875" filterUnits="userSpaceOnUse" color-interpolation-filters="sRGB">
<feFlood flood-opacity="0" result="BackgroundImageFix"/>
<feColorMatrix in="SourceAlpha" type="matrix" values="0 0 0 0 0 0 0 0 0 0 0 0 0 0 0 0 0 0 127 0" result="hardAlpha"/>
<feOffset dy="24"/>
<feGaussianBlur stdDeviation="16"/>
<feComposite in2="hardAlpha" operator="out"/>
<feColorMatrix type="matrix" values="0 0 0 0 0 0 0 0 0 0 0 0 0 0 0 0 0 0 0.12 0"/>
<feBlend mode="normal" in2="BackgroundImageFix" result="effect1_dropShadow_198_38800"/>
<feBlend mode="normal" in="SourceGraphic" in2="effect1_dropShadow_198_38800" result="shape"/>
</filter>
</defs>
</svg>
